<mxfile host="Electron" agent="Mozilla/5.0 (X11; Linux x86_64) AppleWebKit/537.36 (KHTML, like Gecko) draw.io/24.7.8 Chrome/128.0.6613.36 Electron/32.0.1 Safari/537.36" version="24.7.8">
  <diagram name="Page-1" id="Bh3ci52q_jnCBhxRCLKP">
    <mxGraphModel dx="532" dy="465" grid="1" gridSize="10" guides="1" tooltips="1" connect="1" arrows="1" fold="1" page="1" pageScale="1" pageWidth="850" pageHeight="1100" math="0" shadow="0">
      <root>
        <mxCell id="0" />
        <mxCell id="1" parent="0" />
        <mxCell id="uEJfcoyi3J7cDSthgGGN-2" value="" style="rounded=1;whiteSpace=wrap;html=1;fillColor=#1F1F1F;movable=1;resizable=1;rotatable=1;deletable=1;editable=1;locked=0;connectable=1;" vertex="1" parent="1">
          <mxGeometry x="235" y="241.18000000000006" width="282" height="595" as="geometry" />
        </mxCell>
        <mxCell id="uEJfcoyi3J7cDSthgGGN-4" value="" style="ellipse;whiteSpace=wrap;html=1;aspect=fixed;strokeColor=none;fillColor=#FFD152;movable=1;resizable=1;rotatable=1;deletable=1;editable=1;locked=0;connectable=1;" vertex="1" parent="1">
          <mxGeometry x="247" y="256.18000000000006" width="50" height="50" as="geometry" />
        </mxCell>
        <mxCell id="uEJfcoyi3J7cDSthgGGN-6" value="" style="ellipse;whiteSpace=wrap;html=1;aspect=fixed;strokeColor=none;fillColor=#BAA01E;movable=1;resizable=1;rotatable=1;deletable=1;editable=1;locked=0;connectable=1;" vertex="1" parent="1">
          <mxGeometry x="257" y="266.18000000000006" width="30" height="30" as="geometry" />
        </mxCell>
        <mxCell id="uEJfcoyi3J7cDSthgGGN-7" value="" style="ellipse;whiteSpace=wrap;html=1;aspect=fixed;strokeColor=none;fillColor=#FFD152;movable=1;resizable=1;rotatable=1;deletable=1;editable=1;locked=0;connectable=1;" vertex="1" parent="1">
          <mxGeometry x="457" y="256.18000000000006" width="50" height="50" as="geometry" />
        </mxCell>
        <mxCell id="uEJfcoyi3J7cDSthgGGN-8" value="" style="ellipse;whiteSpace=wrap;html=1;aspect=fixed;strokeColor=none;fillColor=#BAA01E;movable=1;resizable=1;rotatable=1;deletable=1;editable=1;locked=0;connectable=1;" vertex="1" parent="1">
          <mxGeometry x="467" y="266.18000000000006" width="30" height="30" as="geometry" />
        </mxCell>
        <mxCell id="uEJfcoyi3J7cDSthgGGN-9" value="" style="ellipse;whiteSpace=wrap;html=1;aspect=fixed;strokeColor=none;fillColor=#FFD152;movable=1;resizable=1;rotatable=1;deletable=1;editable=1;locked=0;connectable=1;" vertex="1" parent="1">
          <mxGeometry x="247" y="776.1799999999998" width="50" height="50" as="geometry" />
        </mxCell>
        <mxCell id="uEJfcoyi3J7cDSthgGGN-10" value="" style="ellipse;whiteSpace=wrap;html=1;aspect=fixed;strokeColor=none;fillColor=#BAA01E;movable=1;resizable=1;rotatable=1;deletable=1;editable=1;locked=0;connectable=1;" vertex="1" parent="1">
          <mxGeometry x="257" y="786.1799999999998" width="30" height="30" as="geometry" />
        </mxCell>
        <mxCell id="uEJfcoyi3J7cDSthgGGN-11" value="" style="ellipse;whiteSpace=wrap;html=1;aspect=fixed;strokeColor=none;fillColor=#FFD152;movable=1;resizable=1;rotatable=1;deletable=1;editable=1;locked=0;connectable=1;" vertex="1" parent="1">
          <mxGeometry x="457" y="776.1799999999998" width="50" height="50" as="geometry" />
        </mxCell>
        <mxCell id="uEJfcoyi3J7cDSthgGGN-12" value="" style="ellipse;whiteSpace=wrap;html=1;aspect=fixed;strokeColor=none;fillColor=#BAA01E;movable=1;resizable=1;rotatable=1;deletable=1;editable=1;locked=0;connectable=1;" vertex="1" parent="1">
          <mxGeometry x="467" y="786.1799999999998" width="30" height="30" as="geometry" />
        </mxCell>
        <mxCell id="uEJfcoyi3J7cDSthgGGN-41" value="" style="rounded=0;whiteSpace=wrap;html=1;strokeColor=none;fillColor=#FFD152;movable=1;resizable=1;rotatable=1;deletable=1;editable=1;locked=0;connectable=1;" vertex="1" parent="1">
          <mxGeometry x="464" y="438.18000000000006" width="6" height="3" as="geometry" />
        </mxCell>
        <mxCell id="uEJfcoyi3J7cDSthgGGN-42" value="" style="rounded=0;whiteSpace=wrap;html=1;strokeColor=none;fillColor=#FFD152;movable=1;resizable=1;rotatable=1;deletable=1;editable=1;locked=0;connectable=1;" vertex="1" parent="1">
          <mxGeometry x="464" y="442.18000000000006" width="6" height="3" as="geometry" />
        </mxCell>
        <mxCell id="uEJfcoyi3J7cDSthgGGN-43" value="" style="rounded=0;whiteSpace=wrap;html=1;strokeColor=none;fillColor=#FFD152;movable=1;resizable=1;rotatable=1;deletable=1;editable=1;locked=0;connectable=1;" vertex="1" parent="1">
          <mxGeometry x="464" y="447.18000000000006" width="6" height="3" as="geometry" />
        </mxCell>
        <mxCell id="uEJfcoyi3J7cDSthgGGN-44" value="" style="rounded=0;whiteSpace=wrap;html=1;strokeColor=none;fillColor=#FFD152;movable=1;resizable=1;rotatable=1;deletable=1;editable=1;locked=0;connectable=1;" vertex="1" parent="1">
          <mxGeometry x="464" y="452.18000000000006" width="6" height="3" as="geometry" />
        </mxCell>
        <mxCell id="uEJfcoyi3J7cDSthgGGN-45" value="" style="rounded=0;whiteSpace=wrap;html=1;strokeColor=none;fillColor=#FFD152;movable=1;resizable=1;rotatable=1;deletable=1;editable=1;locked=0;connectable=1;" vertex="1" parent="1">
          <mxGeometry x="464" y="457.18000000000006" width="6" height="3" as="geometry" />
        </mxCell>
        <mxCell id="uEJfcoyi3J7cDSthgGGN-46" value="" style="rounded=0;whiteSpace=wrap;html=1;strokeColor=none;fillColor=#FFD152;movable=1;resizable=1;rotatable=1;deletable=1;editable=1;locked=0;connectable=1;" vertex="1" parent="1">
          <mxGeometry x="464" y="462.18000000000006" width="6" height="3" as="geometry" />
        </mxCell>
        <mxCell id="uEJfcoyi3J7cDSthgGGN-47" value="" style="rounded=0;whiteSpace=wrap;html=1;strokeColor=none;fillColor=#FFD152;movable=1;resizable=1;rotatable=1;deletable=1;editable=1;locked=0;connectable=1;" vertex="1" parent="1">
          <mxGeometry x="464" y="467.18000000000006" width="6" height="3" as="geometry" />
        </mxCell>
        <mxCell id="uEJfcoyi3J7cDSthgGGN-48" value="" style="rounded=0;whiteSpace=wrap;html=1;strokeColor=none;fillColor=#FFD152;movable=1;resizable=1;rotatable=1;deletable=1;editable=1;locked=0;connectable=1;" vertex="1" parent="1">
          <mxGeometry x="464" y="472.18000000000006" width="6" height="3" as="geometry" />
        </mxCell>
        <mxCell id="uEJfcoyi3J7cDSthgGGN-49" value="" style="rounded=0;whiteSpace=wrap;html=1;strokeColor=none;fillColor=#FFD152;movable=1;resizable=1;rotatable=1;deletable=1;editable=1;locked=0;connectable=1;" vertex="1" parent="1">
          <mxGeometry x="464" y="478.18000000000006" width="6" height="3" as="geometry" />
        </mxCell>
        <mxCell id="uEJfcoyi3J7cDSthgGGN-50" value="" style="rounded=0;whiteSpace=wrap;html=1;strokeColor=none;fillColor=#FFD152;movable=1;resizable=1;rotatable=1;deletable=1;editable=1;locked=0;connectable=1;" vertex="1" parent="1">
          <mxGeometry x="464" y="482.18000000000006" width="6" height="3" as="geometry" />
        </mxCell>
        <mxCell id="uEJfcoyi3J7cDSthgGGN-51" value="" style="rounded=0;whiteSpace=wrap;html=1;strokeColor=none;fillColor=#cebbb4;movable=1;resizable=1;rotatable=1;deletable=1;editable=1;locked=0;connectable=1;" vertex="1" parent="1">
          <mxGeometry x="467" y="526.1800000000001" width="50" height="230" as="geometry" />
        </mxCell>
        <mxCell id="uEJfcoyi3J7cDSthgGGN-52" value="" style="rounded=0;whiteSpace=wrap;html=1;strokeColor=none;fillColor=#5E5652;movable=1;resizable=1;rotatable=1;deletable=1;editable=1;locked=0;connectable=1;" vertex="1" parent="1">
          <mxGeometry x="467" y="526.1800000000001" width="2" height="230" as="geometry" />
        </mxCell>
        <mxCell id="uEJfcoyi3J7cDSthgGGN-53" value="" style="rounded=0;whiteSpace=wrap;html=1;strokeColor=none;fillColor=#4D4D4D;movable=1;resizable=1;rotatable=1;deletable=1;editable=1;locked=0;connectable=1;" vertex="1" parent="1">
          <mxGeometry x="497" y="536.1800000000001" width="20" height="210" as="geometry" />
        </mxCell>
        <mxCell id="uEJfcoyi3J7cDSthgGGN-55" value="" style="rounded=0;whiteSpace=wrap;html=1;strokeColor=none;movable=1;resizable=1;rotatable=1;deletable=1;editable=1;locked=0;connectable=1;" vertex="1" parent="1">
          <mxGeometry x="497" y="546.1800000000001" width="6" height="2" as="geometry" />
        </mxCell>
        <mxCell id="uEJfcoyi3J7cDSthgGGN-56" value="" style="rounded=0;whiteSpace=wrap;html=1;strokeColor=none;movable=1;resizable=1;rotatable=1;deletable=1;editable=1;locked=0;connectable=1;" vertex="1" parent="1">
          <mxGeometry x="497" y="550.1800000000001" width="6" height="2" as="geometry" />
        </mxCell>
        <mxCell id="uEJfcoyi3J7cDSthgGGN-57" value="" style="rounded=0;whiteSpace=wrap;html=1;strokeColor=none;movable=1;resizable=1;rotatable=1;deletable=1;editable=1;locked=0;connectable=1;" vertex="1" parent="1">
          <mxGeometry x="497" y="554.1800000000001" width="6" height="2" as="geometry" />
        </mxCell>
        <mxCell id="uEJfcoyi3J7cDSthgGGN-58" value="" style="rounded=0;whiteSpace=wrap;html=1;strokeColor=none;movable=1;resizable=1;rotatable=1;deletable=1;editable=1;locked=0;connectable=1;" vertex="1" parent="1">
          <mxGeometry x="497" y="558.1800000000001" width="6" height="2" as="geometry" />
        </mxCell>
        <mxCell id="uEJfcoyi3J7cDSthgGGN-59" value="" style="rounded=0;whiteSpace=wrap;html=1;strokeColor=none;movable=1;resizable=1;rotatable=1;deletable=1;editable=1;locked=0;connectable=1;" vertex="1" parent="1">
          <mxGeometry x="497" y="562.1800000000001" width="6" height="2" as="geometry" />
        </mxCell>
        <mxCell id="uEJfcoyi3J7cDSthgGGN-60" value="" style="rounded=0;whiteSpace=wrap;html=1;strokeColor=none;movable=1;resizable=1;rotatable=1;deletable=1;editable=1;locked=0;connectable=1;" vertex="1" parent="1">
          <mxGeometry x="497" y="566.1800000000001" width="6" height="2" as="geometry" />
        </mxCell>
        <mxCell id="uEJfcoyi3J7cDSthgGGN-61" value="" style="rounded=0;whiteSpace=wrap;html=1;strokeColor=none;movable=1;resizable=1;rotatable=1;deletable=1;editable=1;locked=0;connectable=1;" vertex="1" parent="1">
          <mxGeometry x="497" y="570.1800000000001" width="6" height="2" as="geometry" />
        </mxCell>
        <mxCell id="uEJfcoyi3J7cDSthgGGN-62" value="" style="rounded=0;whiteSpace=wrap;html=1;strokeColor=none;movable=1;resizable=1;rotatable=1;deletable=1;editable=1;locked=0;connectable=1;" vertex="1" parent="1">
          <mxGeometry x="497" y="574.1800000000001" width="6" height="2" as="geometry" />
        </mxCell>
        <mxCell id="uEJfcoyi3J7cDSthgGGN-63" value="" style="rounded=0;whiteSpace=wrap;html=1;strokeColor=none;movable=1;resizable=1;rotatable=1;deletable=1;editable=1;locked=0;connectable=1;" vertex="1" parent="1">
          <mxGeometry x="497" y="578.1800000000001" width="6" height="2" as="geometry" />
        </mxCell>
        <mxCell id="uEJfcoyi3J7cDSthgGGN-64" value="" style="rounded=0;whiteSpace=wrap;html=1;strokeColor=none;movable=1;resizable=1;rotatable=1;deletable=1;editable=1;locked=0;connectable=1;" vertex="1" parent="1">
          <mxGeometry x="497" y="582.1800000000001" width="6" height="2" as="geometry" />
        </mxCell>
        <mxCell id="uEJfcoyi3J7cDSthgGGN-65" value="" style="rounded=0;whiteSpace=wrap;html=1;strokeColor=none;movable=1;resizable=1;rotatable=1;deletable=1;editable=1;locked=0;connectable=1;" vertex="1" parent="1">
          <mxGeometry x="497" y="586.1800000000001" width="6" height="2" as="geometry" />
        </mxCell>
        <mxCell id="uEJfcoyi3J7cDSthgGGN-66" value="" style="rounded=0;whiteSpace=wrap;html=1;strokeColor=none;movable=1;resizable=1;rotatable=1;deletable=1;editable=1;locked=0;connectable=1;" vertex="1" parent="1">
          <mxGeometry x="497" y="590.1800000000001" width="6" height="2" as="geometry" />
        </mxCell>
        <mxCell id="uEJfcoyi3J7cDSthgGGN-67" value="" style="rounded=0;whiteSpace=wrap;html=1;strokeColor=none;movable=1;resizable=1;rotatable=1;deletable=1;editable=1;locked=0;connectable=1;" vertex="1" parent="1">
          <mxGeometry x="497" y="594.1800000000001" width="6" height="2" as="geometry" />
        </mxCell>
        <mxCell id="uEJfcoyi3J7cDSthgGGN-68" value="" style="rounded=0;whiteSpace=wrap;html=1;strokeColor=none;movable=1;resizable=1;rotatable=1;deletable=1;editable=1;locked=0;connectable=1;" vertex="1" parent="1">
          <mxGeometry x="497" y="598.1800000000001" width="6" height="2" as="geometry" />
        </mxCell>
        <mxCell id="uEJfcoyi3J7cDSthgGGN-69" value="" style="rounded=0;whiteSpace=wrap;html=1;strokeColor=none;movable=1;resizable=1;rotatable=1;deletable=1;editable=1;locked=0;connectable=1;" vertex="1" parent="1">
          <mxGeometry x="497" y="602.1800000000001" width="6" height="2" as="geometry" />
        </mxCell>
        <mxCell id="uEJfcoyi3J7cDSthgGGN-70" value="" style="rounded=0;whiteSpace=wrap;html=1;strokeColor=none;movable=1;resizable=1;rotatable=1;deletable=1;editable=1;locked=0;connectable=1;" vertex="1" parent="1">
          <mxGeometry x="497" y="606.1800000000001" width="6" height="2" as="geometry" />
        </mxCell>
        <mxCell id="uEJfcoyi3J7cDSthgGGN-71" value="" style="rounded=0;whiteSpace=wrap;html=1;strokeColor=none;movable=1;resizable=1;rotatable=1;deletable=1;editable=1;locked=0;connectable=1;" vertex="1" parent="1">
          <mxGeometry x="497" y="610.1800000000001" width="6" height="2" as="geometry" />
        </mxCell>
        <mxCell id="uEJfcoyi3J7cDSthgGGN-72" value="" style="rounded=0;whiteSpace=wrap;html=1;strokeColor=none;movable=1;resizable=1;rotatable=1;deletable=1;editable=1;locked=0;connectable=1;" vertex="1" parent="1">
          <mxGeometry x="497" y="614.1800000000001" width="6" height="2" as="geometry" />
        </mxCell>
        <mxCell id="uEJfcoyi3J7cDSthgGGN-73" value="" style="rounded=0;whiteSpace=wrap;html=1;strokeColor=none;movable=1;resizable=1;rotatable=1;deletable=1;editable=1;locked=0;connectable=1;" vertex="1" parent="1">
          <mxGeometry x="497" y="618.1800000000001" width="6" height="2" as="geometry" />
        </mxCell>
        <mxCell id="uEJfcoyi3J7cDSthgGGN-74" value="" style="rounded=0;whiteSpace=wrap;html=1;strokeColor=none;movable=1;resizable=1;rotatable=1;deletable=1;editable=1;locked=0;connectable=1;" vertex="1" parent="1">
          <mxGeometry x="497" y="622.1800000000001" width="6" height="2" as="geometry" />
        </mxCell>
        <mxCell id="uEJfcoyi3J7cDSthgGGN-75" value="" style="rounded=0;whiteSpace=wrap;html=1;strokeColor=none;movable=1;resizable=1;rotatable=1;deletable=1;editable=1;locked=0;connectable=1;" vertex="1" parent="1">
          <mxGeometry x="497" y="626.1800000000001" width="6" height="2" as="geometry" />
        </mxCell>
        <mxCell id="uEJfcoyi3J7cDSthgGGN-76" value="" style="rounded=0;whiteSpace=wrap;html=1;strokeColor=none;movable=1;resizable=1;rotatable=1;deletable=1;editable=1;locked=0;connectable=1;" vertex="1" parent="1">
          <mxGeometry x="497" y="630.1800000000001" width="6" height="2" as="geometry" />
        </mxCell>
        <mxCell id="uEJfcoyi3J7cDSthgGGN-77" value="" style="rounded=0;whiteSpace=wrap;html=1;strokeColor=none;movable=1;resizable=1;rotatable=1;deletable=1;editable=1;locked=0;connectable=1;" vertex="1" parent="1">
          <mxGeometry x="497" y="634.1800000000001" width="6" height="2" as="geometry" />
        </mxCell>
        <mxCell id="uEJfcoyi3J7cDSthgGGN-78" value="" style="rounded=0;whiteSpace=wrap;html=1;strokeColor=none;movable=1;resizable=1;rotatable=1;deletable=1;editable=1;locked=0;connectable=1;" vertex="1" parent="1">
          <mxGeometry x="497" y="638.1800000000001" width="6" height="2" as="geometry" />
        </mxCell>
        <mxCell id="uEJfcoyi3J7cDSthgGGN-79" value="" style="rounded=0;whiteSpace=wrap;html=1;strokeColor=none;movable=1;resizable=1;rotatable=1;deletable=1;editable=1;locked=0;connectable=1;" vertex="1" parent="1">
          <mxGeometry x="497" y="642.1800000000001" width="6" height="2" as="geometry" />
        </mxCell>
        <mxCell id="uEJfcoyi3J7cDSthgGGN-80" value="" style="rounded=0;whiteSpace=wrap;html=1;strokeColor=none;movable=1;resizable=1;rotatable=1;deletable=1;editable=1;locked=0;connectable=1;" vertex="1" parent="1">
          <mxGeometry x="497" y="646.1800000000001" width="6" height="2" as="geometry" />
        </mxCell>
        <mxCell id="uEJfcoyi3J7cDSthgGGN-81" value="" style="rounded=0;whiteSpace=wrap;html=1;strokeColor=none;movable=1;resizable=1;rotatable=1;deletable=1;editable=1;locked=0;connectable=1;" vertex="1" parent="1">
          <mxGeometry x="497" y="650.1800000000001" width="6" height="2" as="geometry" />
        </mxCell>
        <mxCell id="uEJfcoyi3J7cDSthgGGN-82" value="" style="rounded=0;whiteSpace=wrap;html=1;strokeColor=none;movable=1;resizable=1;rotatable=1;deletable=1;editable=1;locked=0;connectable=1;" vertex="1" parent="1">
          <mxGeometry x="497" y="654.1800000000001" width="6" height="2" as="geometry" />
        </mxCell>
        <mxCell id="uEJfcoyi3J7cDSthgGGN-83" value="" style="rounded=0;whiteSpace=wrap;html=1;strokeColor=none;movable=1;resizable=1;rotatable=1;deletable=1;editable=1;locked=0;connectable=1;" vertex="1" parent="1">
          <mxGeometry x="497" y="658.1800000000001" width="6" height="2" as="geometry" />
        </mxCell>
        <mxCell id="uEJfcoyi3J7cDSthgGGN-84" value="" style="rounded=0;whiteSpace=wrap;html=1;strokeColor=none;movable=1;resizable=1;rotatable=1;deletable=1;editable=1;locked=0;connectable=1;" vertex="1" parent="1">
          <mxGeometry x="497" y="662.1800000000001" width="6" height="2" as="geometry" />
        </mxCell>
        <mxCell id="uEJfcoyi3J7cDSthgGGN-85" value="" style="rounded=0;whiteSpace=wrap;html=1;strokeColor=none;movable=1;resizable=1;rotatable=1;deletable=1;editable=1;locked=0;connectable=1;" vertex="1" parent="1">
          <mxGeometry x="497" y="666.1800000000001" width="6" height="2" as="geometry" />
        </mxCell>
        <mxCell id="uEJfcoyi3J7cDSthgGGN-86" value="" style="rounded=0;whiteSpace=wrap;html=1;strokeColor=none;movable=1;resizable=1;rotatable=1;deletable=1;editable=1;locked=0;connectable=1;" vertex="1" parent="1">
          <mxGeometry x="497" y="670.1800000000001" width="6" height="2" as="geometry" />
        </mxCell>
        <mxCell id="uEJfcoyi3J7cDSthgGGN-88" value="" style="rounded=0;whiteSpace=wrap;html=1;strokeColor=none;movable=1;resizable=1;rotatable=1;deletable=1;editable=1;locked=0;connectable=1;" vertex="1" parent="1">
          <mxGeometry x="497" y="674.18" width="6" height="2" as="geometry" />
        </mxCell>
        <mxCell id="uEJfcoyi3J7cDSthgGGN-89" value="" style="rounded=0;whiteSpace=wrap;html=1;strokeColor=none;movable=1;resizable=1;rotatable=1;deletable=1;editable=1;locked=0;connectable=1;" vertex="1" parent="1">
          <mxGeometry x="497" y="678.18" width="6" height="2" as="geometry" />
        </mxCell>
        <mxCell id="uEJfcoyi3J7cDSthgGGN-90" value="" style="rounded=0;whiteSpace=wrap;html=1;strokeColor=none;movable=1;resizable=1;rotatable=1;deletable=1;editable=1;locked=0;connectable=1;" vertex="1" parent="1">
          <mxGeometry x="497" y="682.18" width="6" height="2" as="geometry" />
        </mxCell>
        <mxCell id="uEJfcoyi3J7cDSthgGGN-91" value="" style="rounded=0;whiteSpace=wrap;html=1;strokeColor=none;movable=1;resizable=1;rotatable=1;deletable=1;editable=1;locked=0;connectable=1;" vertex="1" parent="1">
          <mxGeometry x="497" y="686.18" width="6" height="2" as="geometry" />
        </mxCell>
        <mxCell id="uEJfcoyi3J7cDSthgGGN-92" value="" style="rounded=0;whiteSpace=wrap;html=1;strokeColor=none;movable=1;resizable=1;rotatable=1;deletable=1;editable=1;locked=0;connectable=1;" vertex="1" parent="1">
          <mxGeometry x="497" y="690.18" width="6" height="2" as="geometry" />
        </mxCell>
        <mxCell id="uEJfcoyi3J7cDSthgGGN-93" value="" style="rounded=0;whiteSpace=wrap;html=1;strokeColor=none;movable=1;resizable=1;rotatable=1;deletable=1;editable=1;locked=0;connectable=1;" vertex="1" parent="1">
          <mxGeometry x="497" y="694.18" width="6" height="2" as="geometry" />
        </mxCell>
        <mxCell id="uEJfcoyi3J7cDSthgGGN-94" value="" style="rounded=0;whiteSpace=wrap;html=1;strokeColor=none;movable=1;resizable=1;rotatable=1;deletable=1;editable=1;locked=0;connectable=1;" vertex="1" parent="1">
          <mxGeometry x="497" y="698.18" width="6" height="2" as="geometry" />
        </mxCell>
        <mxCell id="uEJfcoyi3J7cDSthgGGN-95" value="" style="rounded=0;whiteSpace=wrap;html=1;strokeColor=none;movable=1;resizable=1;rotatable=1;deletable=1;editable=1;locked=0;connectable=1;" vertex="1" parent="1">
          <mxGeometry x="497" y="702.18" width="6" height="2" as="geometry" />
        </mxCell>
        <mxCell id="uEJfcoyi3J7cDSthgGGN-96" value="" style="rounded=0;whiteSpace=wrap;html=1;strokeColor=none;movable=1;resizable=1;rotatable=1;deletable=1;editable=1;locked=0;connectable=1;" vertex="1" parent="1">
          <mxGeometry x="497" y="706.18" width="6" height="2" as="geometry" />
        </mxCell>
        <mxCell id="uEJfcoyi3J7cDSthgGGN-97" value="" style="rounded=0;whiteSpace=wrap;html=1;strokeColor=none;movable=1;resizable=1;rotatable=1;deletable=1;editable=1;locked=0;connectable=1;" vertex="1" parent="1">
          <mxGeometry x="497" y="710.18" width="6" height="2" as="geometry" />
        </mxCell>
        <mxCell id="uEJfcoyi3J7cDSthgGGN-98" value="" style="rounded=0;whiteSpace=wrap;html=1;strokeColor=none;movable=1;resizable=1;rotatable=1;deletable=1;editable=1;locked=0;connectable=1;" vertex="1" parent="1">
          <mxGeometry x="497" y="714.18" width="6" height="2" as="geometry" />
        </mxCell>
        <mxCell id="uEJfcoyi3J7cDSthgGGN-99" value="" style="rounded=0;whiteSpace=wrap;html=1;strokeColor=none;movable=1;resizable=1;rotatable=1;deletable=1;editable=1;locked=0;connectable=1;" vertex="1" parent="1">
          <mxGeometry x="497" y="718.18" width="6" height="2" as="geometry" />
        </mxCell>
        <mxCell id="uEJfcoyi3J7cDSthgGGN-100" value="" style="rounded=0;whiteSpace=wrap;html=1;strokeColor=none;movable=1;resizable=1;rotatable=1;deletable=1;editable=1;locked=0;connectable=1;" vertex="1" parent="1">
          <mxGeometry x="497" y="722.18" width="6" height="2" as="geometry" />
        </mxCell>
        <mxCell id="uEJfcoyi3J7cDSthgGGN-101" value="" style="rounded=0;whiteSpace=wrap;html=1;strokeColor=none;movable=1;resizable=1;rotatable=1;deletable=1;editable=1;locked=0;connectable=1;" vertex="1" parent="1">
          <mxGeometry x="497" y="726.1799999999998" width="6" height="2" as="geometry" />
        </mxCell>
        <mxCell id="uEJfcoyi3J7cDSthgGGN-102" value="" style="rounded=0;whiteSpace=wrap;html=1;strokeColor=none;movable=1;resizable=1;rotatable=1;deletable=1;editable=1;locked=0;connectable=1;" vertex="1" parent="1">
          <mxGeometry x="497" y="730.1799999999998" width="6" height="2" as="geometry" />
        </mxCell>
        <mxCell id="uEJfcoyi3J7cDSthgGGN-103" value="" style="rounded=0;whiteSpace=wrap;html=1;strokeColor=none;movable=1;resizable=1;rotatable=1;deletable=1;editable=1;locked=0;connectable=1;" vertex="1" parent="1">
          <mxGeometry x="497" y="734.1799999999998" width="6" height="2" as="geometry" />
        </mxCell>
        <mxCell id="uEJfcoyi3J7cDSthgGGN-120" value="" style="rounded=0;whiteSpace=wrap;html=1;strokeColor=none;fillColor=#FFD152;movable=1;resizable=1;rotatable=1;deletable=1;editable=1;locked=0;connectable=1;" vertex="1" parent="1">
          <mxGeometry x="457" y="546.1800000000001" width="10" height="2" as="geometry" />
        </mxCell>
        <mxCell id="uEJfcoyi3J7cDSthgGGN-121" value="" style="rounded=0;whiteSpace=wrap;html=1;strokeColor=none;fillColor=#FFD152;movable=1;resizable=1;rotatable=1;deletable=1;editable=1;locked=0;connectable=1;" vertex="1" parent="1">
          <mxGeometry x="457" y="550.1800000000001" width="10" height="2" as="geometry" />
        </mxCell>
        <mxCell id="uEJfcoyi3J7cDSthgGGN-122" value="" style="rounded=0;whiteSpace=wrap;html=1;strokeColor=none;fillColor=#FFD152;movable=1;resizable=1;rotatable=1;deletable=1;editable=1;locked=0;connectable=1;" vertex="1" parent="1">
          <mxGeometry x="457" y="554.1800000000001" width="10" height="2" as="geometry" />
        </mxCell>
        <mxCell id="uEJfcoyi3J7cDSthgGGN-123" value="" style="rounded=0;whiteSpace=wrap;html=1;strokeColor=none;fillColor=#FFD152;movable=1;resizable=1;rotatable=1;deletable=1;editable=1;locked=0;connectable=1;" vertex="1" parent="1">
          <mxGeometry x="457" y="558.1800000000001" width="10" height="2" as="geometry" />
        </mxCell>
        <mxCell id="uEJfcoyi3J7cDSthgGGN-124" value="" style="rounded=0;whiteSpace=wrap;html=1;strokeColor=none;fillColor=#FFD152;movable=1;resizable=1;rotatable=1;deletable=1;editable=1;locked=0;connectable=1;" vertex="1" parent="1">
          <mxGeometry x="457" y="562.1800000000001" width="10" height="2" as="geometry" />
        </mxCell>
        <mxCell id="uEJfcoyi3J7cDSthgGGN-125" value="" style="rounded=0;whiteSpace=wrap;html=1;strokeColor=none;fillColor=#FFD152;movable=1;resizable=1;rotatable=1;deletable=1;editable=1;locked=0;connectable=1;" vertex="1" parent="1">
          <mxGeometry x="457" y="566.1800000000001" width="10" height="2" as="geometry" />
        </mxCell>
        <mxCell id="uEJfcoyi3J7cDSthgGGN-126" value="" style="rounded=0;whiteSpace=wrap;html=1;strokeColor=none;fillColor=#FFD152;movable=1;resizable=1;rotatable=1;deletable=1;editable=1;locked=0;connectable=1;" vertex="1" parent="1">
          <mxGeometry x="457" y="570.1800000000001" width="10" height="2" as="geometry" />
        </mxCell>
        <mxCell id="uEJfcoyi3J7cDSthgGGN-127" value="" style="rounded=0;whiteSpace=wrap;html=1;strokeColor=none;fillColor=#FFD152;movable=1;resizable=1;rotatable=1;deletable=1;editable=1;locked=0;connectable=1;" vertex="1" parent="1">
          <mxGeometry x="457" y="574.1800000000001" width="10" height="2" as="geometry" />
        </mxCell>
        <mxCell id="uEJfcoyi3J7cDSthgGGN-128" value="" style="rounded=0;whiteSpace=wrap;html=1;strokeColor=none;fillColor=#FFD152;movable=1;resizable=1;rotatable=1;deletable=1;editable=1;locked=0;connectable=1;" vertex="1" parent="1">
          <mxGeometry x="457" y="578.1800000000001" width="10" height="2" as="geometry" />
        </mxCell>
        <mxCell id="uEJfcoyi3J7cDSthgGGN-129" value="" style="rounded=0;whiteSpace=wrap;html=1;strokeColor=none;fillColor=#FFD152;movable=1;resizable=1;rotatable=1;deletable=1;editable=1;locked=0;connectable=1;" vertex="1" parent="1">
          <mxGeometry x="457" y="582.1800000000001" width="10" height="2" as="geometry" />
        </mxCell>
        <mxCell id="uEJfcoyi3J7cDSthgGGN-130" value="" style="rounded=0;whiteSpace=wrap;html=1;strokeColor=none;fillColor=#FFD152;movable=1;resizable=1;rotatable=1;deletable=1;editable=1;locked=0;connectable=1;" vertex="1" parent="1">
          <mxGeometry x="457" y="586.1800000000001" width="10" height="2" as="geometry" />
        </mxCell>
        <mxCell id="uEJfcoyi3J7cDSthgGGN-131" value="" style="rounded=0;whiteSpace=wrap;html=1;strokeColor=none;fillColor=#FFD152;movable=1;resizable=1;rotatable=1;deletable=1;editable=1;locked=0;connectable=1;" vertex="1" parent="1">
          <mxGeometry x="457" y="590.1800000000001" width="10" height="2" as="geometry" />
        </mxCell>
        <mxCell id="uEJfcoyi3J7cDSthgGGN-132" value="" style="rounded=0;whiteSpace=wrap;html=1;strokeColor=none;fillColor=#FFD152;movable=1;resizable=1;rotatable=1;deletable=1;editable=1;locked=0;connectable=1;" vertex="1" parent="1">
          <mxGeometry x="457" y="594.1800000000001" width="10" height="2" as="geometry" />
        </mxCell>
        <mxCell id="uEJfcoyi3J7cDSthgGGN-133" value="" style="rounded=0;whiteSpace=wrap;html=1;strokeColor=none;fillColor=#FFD152;movable=1;resizable=1;rotatable=1;deletable=1;editable=1;locked=0;connectable=1;" vertex="1" parent="1">
          <mxGeometry x="457" y="598.1800000000001" width="10" height="2" as="geometry" />
        </mxCell>
        <mxCell id="uEJfcoyi3J7cDSthgGGN-134" value="" style="rounded=0;whiteSpace=wrap;html=1;strokeColor=none;fillColor=#FFD152;movable=1;resizable=1;rotatable=1;deletable=1;editable=1;locked=0;connectable=1;" vertex="1" parent="1">
          <mxGeometry x="457" y="602.1800000000001" width="10" height="2" as="geometry" />
        </mxCell>
        <mxCell id="uEJfcoyi3J7cDSthgGGN-135" value="" style="rounded=0;whiteSpace=wrap;html=1;strokeColor=none;fillColor=#FFD152;movable=1;resizable=1;rotatable=1;deletable=1;editable=1;locked=0;connectable=1;" vertex="1" parent="1">
          <mxGeometry x="457" y="606.1800000000001" width="10" height="2" as="geometry" />
        </mxCell>
        <mxCell id="uEJfcoyi3J7cDSthgGGN-136" value="" style="rounded=0;whiteSpace=wrap;html=1;strokeColor=none;fillColor=#FFD152;movable=1;resizable=1;rotatable=1;deletable=1;editable=1;locked=0;connectable=1;" vertex="1" parent="1">
          <mxGeometry x="457" y="610.1800000000001" width="10" height="2" as="geometry" />
        </mxCell>
        <mxCell id="uEJfcoyi3J7cDSthgGGN-137" value="" style="rounded=0;whiteSpace=wrap;html=1;strokeColor=none;fillColor=#FFD152;movable=1;resizable=1;rotatable=1;deletable=1;editable=1;locked=0;connectable=1;" vertex="1" parent="1">
          <mxGeometry x="457" y="614.1800000000001" width="10" height="2" as="geometry" />
        </mxCell>
        <mxCell id="uEJfcoyi3J7cDSthgGGN-138" value="" style="rounded=0;whiteSpace=wrap;html=1;strokeColor=none;fillColor=#FFD152;movable=1;resizable=1;rotatable=1;deletable=1;editable=1;locked=0;connectable=1;" vertex="1" parent="1">
          <mxGeometry x="457" y="618.1800000000001" width="10" height="2" as="geometry" />
        </mxCell>
        <mxCell id="uEJfcoyi3J7cDSthgGGN-139" value="" style="rounded=0;whiteSpace=wrap;html=1;strokeColor=none;fillColor=#FFD152;movable=1;resizable=1;rotatable=1;deletable=1;editable=1;locked=0;connectable=1;" vertex="1" parent="1">
          <mxGeometry x="457" y="622.1800000000001" width="10" height="2" as="geometry" />
        </mxCell>
        <mxCell id="uEJfcoyi3J7cDSthgGGN-140" value="" style="rounded=0;whiteSpace=wrap;html=1;strokeColor=none;fillColor=#FFD152;movable=1;resizable=1;rotatable=1;deletable=1;editable=1;locked=0;connectable=1;" vertex="1" parent="1">
          <mxGeometry x="457" y="626.1800000000001" width="10" height="2" as="geometry" />
        </mxCell>
        <mxCell id="uEJfcoyi3J7cDSthgGGN-141" value="" style="rounded=0;whiteSpace=wrap;html=1;strokeColor=none;fillColor=#FFD152;movable=1;resizable=1;rotatable=1;deletable=1;editable=1;locked=0;connectable=1;" vertex="1" parent="1">
          <mxGeometry x="457" y="630.1800000000001" width="10" height="2" as="geometry" />
        </mxCell>
        <mxCell id="uEJfcoyi3J7cDSthgGGN-142" value="" style="rounded=0;whiteSpace=wrap;html=1;strokeColor=none;fillColor=#FFD152;movable=1;resizable=1;rotatable=1;deletable=1;editable=1;locked=0;connectable=1;" vertex="1" parent="1">
          <mxGeometry x="457" y="634.1800000000001" width="10" height="2" as="geometry" />
        </mxCell>
        <mxCell id="uEJfcoyi3J7cDSthgGGN-143" value="" style="rounded=0;whiteSpace=wrap;html=1;strokeColor=none;fillColor=#FFD152;movable=1;resizable=1;rotatable=1;deletable=1;editable=1;locked=0;connectable=1;" vertex="1" parent="1">
          <mxGeometry x="457" y="638.1800000000001" width="10" height="2" as="geometry" />
        </mxCell>
        <mxCell id="uEJfcoyi3J7cDSthgGGN-144" value="" style="rounded=0;whiteSpace=wrap;html=1;strokeColor=none;fillColor=#FFD152;movable=1;resizable=1;rotatable=1;deletable=1;editable=1;locked=0;connectable=1;" vertex="1" parent="1">
          <mxGeometry x="457" y="642.1800000000001" width="10" height="2" as="geometry" />
        </mxCell>
        <mxCell id="uEJfcoyi3J7cDSthgGGN-145" value="" style="rounded=0;whiteSpace=wrap;html=1;strokeColor=none;fillColor=#FFD152;movable=1;resizable=1;rotatable=1;deletable=1;editable=1;locked=0;connectable=1;" vertex="1" parent="1">
          <mxGeometry x="457" y="646.1800000000001" width="10" height="2" as="geometry" />
        </mxCell>
        <mxCell id="uEJfcoyi3J7cDSthgGGN-146" value="" style="rounded=0;whiteSpace=wrap;html=1;strokeColor=none;fillColor=#FFD152;movable=1;resizable=1;rotatable=1;deletable=1;editable=1;locked=0;connectable=1;" vertex="1" parent="1">
          <mxGeometry x="457" y="650.1800000000001" width="10" height="2" as="geometry" />
        </mxCell>
        <mxCell id="uEJfcoyi3J7cDSthgGGN-147" value="" style="rounded=0;whiteSpace=wrap;html=1;strokeColor=none;fillColor=#FFD152;movable=1;resizable=1;rotatable=1;deletable=1;editable=1;locked=0;connectable=1;" vertex="1" parent="1">
          <mxGeometry x="457" y="654.1800000000001" width="10" height="2" as="geometry" />
        </mxCell>
        <mxCell id="uEJfcoyi3J7cDSthgGGN-148" value="" style="rounded=0;whiteSpace=wrap;html=1;strokeColor=none;fillColor=#FFD152;movable=1;resizable=1;rotatable=1;deletable=1;editable=1;locked=0;connectable=1;" vertex="1" parent="1">
          <mxGeometry x="457" y="658.1800000000001" width="10" height="2" as="geometry" />
        </mxCell>
        <mxCell id="uEJfcoyi3J7cDSthgGGN-149" value="" style="rounded=0;whiteSpace=wrap;html=1;strokeColor=none;fillColor=#FFD152;movable=1;resizable=1;rotatable=1;deletable=1;editable=1;locked=0;connectable=1;" vertex="1" parent="1">
          <mxGeometry x="457" y="662.1800000000001" width="10" height="2" as="geometry" />
        </mxCell>
        <mxCell id="uEJfcoyi3J7cDSthgGGN-150" value="" style="rounded=0;whiteSpace=wrap;html=1;strokeColor=none;fillColor=#FFD152;movable=1;resizable=1;rotatable=1;deletable=1;editable=1;locked=0;connectable=1;" vertex="1" parent="1">
          <mxGeometry x="457" y="666.1800000000001" width="10" height="2" as="geometry" />
        </mxCell>
        <mxCell id="uEJfcoyi3J7cDSthgGGN-151" value="" style="rounded=0;whiteSpace=wrap;html=1;strokeColor=none;fillColor=#FFD152;movable=1;resizable=1;rotatable=1;deletable=1;editable=1;locked=0;connectable=1;" vertex="1" parent="1">
          <mxGeometry x="457" y="670.1800000000001" width="10" height="2" as="geometry" />
        </mxCell>
        <mxCell id="uEJfcoyi3J7cDSthgGGN-152" value="" style="rounded=0;whiteSpace=wrap;html=1;strokeColor=none;fillColor=#FFD152;movable=1;resizable=1;rotatable=1;deletable=1;editable=1;locked=0;connectable=1;" vertex="1" parent="1">
          <mxGeometry x="457" y="674.18" width="10" height="2" as="geometry" />
        </mxCell>
        <mxCell id="uEJfcoyi3J7cDSthgGGN-153" value="" style="rounded=0;whiteSpace=wrap;html=1;strokeColor=none;fillColor=#FFD152;movable=1;resizable=1;rotatable=1;deletable=1;editable=1;locked=0;connectable=1;" vertex="1" parent="1">
          <mxGeometry x="457" y="678.18" width="10" height="2" as="geometry" />
        </mxCell>
        <mxCell id="uEJfcoyi3J7cDSthgGGN-154" value="" style="rounded=0;whiteSpace=wrap;html=1;strokeColor=none;fillColor=#FFD152;movable=1;resizable=1;rotatable=1;deletable=1;editable=1;locked=0;connectable=1;" vertex="1" parent="1">
          <mxGeometry x="457" y="682.18" width="10" height="2" as="geometry" />
        </mxCell>
        <mxCell id="uEJfcoyi3J7cDSthgGGN-155" value="" style="rounded=0;whiteSpace=wrap;html=1;strokeColor=none;fillColor=#FFD152;movable=1;resizable=1;rotatable=1;deletable=1;editable=1;locked=0;connectable=1;" vertex="1" parent="1">
          <mxGeometry x="457" y="686.18" width="10" height="2" as="geometry" />
        </mxCell>
        <mxCell id="uEJfcoyi3J7cDSthgGGN-156" value="" style="rounded=0;whiteSpace=wrap;html=1;strokeColor=none;fillColor=#FFD152;movable=1;resizable=1;rotatable=1;deletable=1;editable=1;locked=0;connectable=1;" vertex="1" parent="1">
          <mxGeometry x="457" y="690.18" width="10" height="2" as="geometry" />
        </mxCell>
        <mxCell id="uEJfcoyi3J7cDSthgGGN-157" value="" style="rounded=0;whiteSpace=wrap;html=1;strokeColor=none;fillColor=#FFD152;movable=1;resizable=1;rotatable=1;deletable=1;editable=1;locked=0;connectable=1;" vertex="1" parent="1">
          <mxGeometry x="457" y="694.18" width="10" height="2" as="geometry" />
        </mxCell>
        <mxCell id="uEJfcoyi3J7cDSthgGGN-158" value="" style="rounded=0;whiteSpace=wrap;html=1;strokeColor=none;fillColor=#FFD152;movable=1;resizable=1;rotatable=1;deletable=1;editable=1;locked=0;connectable=1;" vertex="1" parent="1">
          <mxGeometry x="457" y="698.18" width="10" height="2" as="geometry" />
        </mxCell>
        <mxCell id="uEJfcoyi3J7cDSthgGGN-159" value="" style="rounded=0;whiteSpace=wrap;html=1;strokeColor=none;fillColor=#FFD152;movable=1;resizable=1;rotatable=1;deletable=1;editable=1;locked=0;connectable=1;" vertex="1" parent="1">
          <mxGeometry x="457" y="702.18" width="10" height="2" as="geometry" />
        </mxCell>
        <mxCell id="uEJfcoyi3J7cDSthgGGN-160" value="" style="rounded=0;whiteSpace=wrap;html=1;strokeColor=none;fillColor=#FFD152;movable=1;resizable=1;rotatable=1;deletable=1;editable=1;locked=0;connectable=1;" vertex="1" parent="1">
          <mxGeometry x="457" y="706.18" width="10" height="2" as="geometry" />
        </mxCell>
        <mxCell id="uEJfcoyi3J7cDSthgGGN-161" value="" style="rounded=0;whiteSpace=wrap;html=1;strokeColor=none;fillColor=#FFD152;movable=1;resizable=1;rotatable=1;deletable=1;editable=1;locked=0;connectable=1;" vertex="1" parent="1">
          <mxGeometry x="457" y="710.18" width="10" height="2" as="geometry" />
        </mxCell>
        <mxCell id="uEJfcoyi3J7cDSthgGGN-162" value="" style="rounded=0;whiteSpace=wrap;html=1;strokeColor=none;fillColor=#FFD152;movable=1;resizable=1;rotatable=1;deletable=1;editable=1;locked=0;connectable=1;" vertex="1" parent="1">
          <mxGeometry x="457" y="714.18" width="10" height="2" as="geometry" />
        </mxCell>
        <mxCell id="uEJfcoyi3J7cDSthgGGN-163" value="" style="rounded=0;whiteSpace=wrap;html=1;strokeColor=none;fillColor=#FFD152;movable=1;resizable=1;rotatable=1;deletable=1;editable=1;locked=0;connectable=1;" vertex="1" parent="1">
          <mxGeometry x="457" y="718.18" width="10" height="2" as="geometry" />
        </mxCell>
        <mxCell id="uEJfcoyi3J7cDSthgGGN-164" value="" style="rounded=0;whiteSpace=wrap;html=1;strokeColor=none;fillColor=#FFD152;movable=1;resizable=1;rotatable=1;deletable=1;editable=1;locked=0;connectable=1;" vertex="1" parent="1">
          <mxGeometry x="457" y="722.18" width="10" height="2" as="geometry" />
        </mxCell>
        <mxCell id="uEJfcoyi3J7cDSthgGGN-165" value="" style="rounded=0;whiteSpace=wrap;html=1;strokeColor=none;fillColor=#FFD152;movable=1;resizable=1;rotatable=1;deletable=1;editable=1;locked=0;connectable=1;" vertex="1" parent="1">
          <mxGeometry x="457" y="726.1799999999998" width="10" height="2" as="geometry" />
        </mxCell>
        <mxCell id="uEJfcoyi3J7cDSthgGGN-166" value="" style="rounded=0;whiteSpace=wrap;html=1;strokeColor=none;fillColor=#FFD152;movable=1;resizable=1;rotatable=1;deletable=1;editable=1;locked=0;connectable=1;" vertex="1" parent="1">
          <mxGeometry x="457" y="730.1799999999998" width="10" height="2" as="geometry" />
        </mxCell>
        <mxCell id="uEJfcoyi3J7cDSthgGGN-167" value="" style="rounded=0;whiteSpace=wrap;html=1;strokeColor=none;fillColor=#FFD152;movable=1;resizable=1;rotatable=1;deletable=1;editable=1;locked=0;connectable=1;" vertex="1" parent="1">
          <mxGeometry x="457" y="734.1799999999998" width="10" height="2" as="geometry" />
        </mxCell>
        <mxCell id="uEJfcoyi3J7cDSthgGGN-168" value="" style="rounded=0;whiteSpace=wrap;html=1;strokeColor=none;fillColor=#333333;movable=1;resizable=1;rotatable=1;deletable=1;editable=1;locked=0;connectable=1;" vertex="1" parent="1">
          <mxGeometry x="309" y="636.1800000000001" width="130" height="67" as="geometry" />
        </mxCell>
        <mxCell id="uEJfcoyi3J7cDSthgGGN-169" value="" style="rounded=0;whiteSpace=wrap;html=1;strokeColor=none;fillColor=#333333;movable=1;resizable=1;rotatable=1;deletable=1;editable=1;locked=0;connectable=1;" vertex="1" parent="1">
          <mxGeometry x="309" y="468.18000000000006" width="130" height="130" as="geometry" />
        </mxCell>
        <mxCell id="uEJfcoyi3J7cDSthgGGN-170" value="" style="rounded=0;whiteSpace=wrap;html=1;strokeColor=none;fillColor=#D1D1D1;movable=1;resizable=1;rotatable=1;deletable=1;editable=1;locked=0;connectable=1;" vertex="1" parent="1">
          <mxGeometry x="305" y="732.1799999999998" width="82" height="70" as="geometry" />
        </mxCell>
        <mxCell id="uEJfcoyi3J7cDSthgGGN-171" value="" style="rounded=1;whiteSpace=wrap;html=1;strokeColor=none;fillColor=#B3B3B3;movable=1;resizable=1;rotatable=1;deletable=1;editable=1;locked=0;connectable=1;" vertex="1" parent="1">
          <mxGeometry x="313" y="752.1799999999998" width="5" height="12" as="geometry" />
        </mxCell>
        <mxCell id="uEJfcoyi3J7cDSthgGGN-172" value="" style="rounded=1;whiteSpace=wrap;html=1;strokeColor=none;fillColor=#B3B3B3;movable=1;resizable=1;rotatable=1;deletable=1;editable=1;locked=0;connectable=1;" vertex="1" parent="1">
          <mxGeometry x="320" y="752.1799999999998" width="5" height="12" as="geometry" />
        </mxCell>
        <mxCell id="uEJfcoyi3J7cDSthgGGN-173" value="" style="rounded=1;whiteSpace=wrap;html=1;strokeColor=none;fillColor=#B3B3B3;movable=1;resizable=1;rotatable=1;deletable=1;editable=1;locked=0;connectable=1;" vertex="1" parent="1">
          <mxGeometry x="327" y="755.1799999999998" width="5" height="12" as="geometry" />
        </mxCell>
        <mxCell id="uEJfcoyi3J7cDSthgGGN-174" value="" style="rounded=1;whiteSpace=wrap;html=1;strokeColor=none;fillColor=#B3B3B3;movable=1;resizable=1;rotatable=1;deletable=1;editable=1;locked=0;connectable=1;" vertex="1" parent="1">
          <mxGeometry x="334" y="752.1799999999998" width="5" height="12" as="geometry" />
        </mxCell>
        <mxCell id="uEJfcoyi3J7cDSthgGGN-175" value="" style="rounded=1;whiteSpace=wrap;html=1;strokeColor=none;fillColor=#B3B3B3;movable=1;resizable=1;rotatable=1;deletable=1;editable=1;locked=0;connectable=1;" vertex="1" parent="1">
          <mxGeometry x="342" y="754.1799999999998" width="5" height="12" as="geometry" />
        </mxCell>
        <mxCell id="uEJfcoyi3J7cDSthgGGN-176" value="" style="rounded=1;whiteSpace=wrap;html=1;strokeColor=none;fillColor=#B3B3B3;movable=1;resizable=1;rotatable=1;deletable=1;editable=1;locked=0;connectable=1;" vertex="1" parent="1">
          <mxGeometry x="350" y="752.1799999999998" width="5" height="12" as="geometry" />
        </mxCell>
        <mxCell id="uEJfcoyi3J7cDSthgGGN-177" value="" style="rounded=1;whiteSpace=wrap;html=1;strokeColor=none;fillColor=#B3B3B3;movable=1;resizable=1;rotatable=1;deletable=1;editable=1;locked=0;connectable=1;" vertex="1" parent="1">
          <mxGeometry x="366" y="752.1799999999998" width="5" height="12" as="geometry" />
        </mxCell>
        <mxCell id="uEJfcoyi3J7cDSthgGGN-178" value="" style="rounded=1;whiteSpace=wrap;html=1;strokeColor=none;fillColor=#B3B3B3;movable=1;resizable=1;rotatable=1;deletable=1;editable=1;locked=0;connectable=1;" vertex="1" parent="1">
          <mxGeometry x="358" y="752.1799999999998" width="5" height="12" as="geometry" />
        </mxCell>
        <mxCell id="uEJfcoyi3J7cDSthgGGN-179" value="" style="rounded=1;whiteSpace=wrap;html=1;strokeColor=none;fillColor=#D1D1D1;movable=1;resizable=1;rotatable=1;deletable=1;editable=1;locked=0;connectable=1;" vertex="1" parent="1">
          <mxGeometry x="305" y="808.1799999999998" width="7" height="9" as="geometry" />
        </mxCell>
        <mxCell id="uEJfcoyi3J7cDSthgGGN-180" value="" style="rounded=1;whiteSpace=wrap;html=1;strokeColor=none;fillColor=#D1D1D1;movable=1;resizable=1;rotatable=1;deletable=1;editable=1;locked=0;connectable=1;" vertex="1" parent="1">
          <mxGeometry x="380" y="808.1799999999998" width="7" height="9" as="geometry" />
        </mxCell>
        <mxCell id="uEJfcoyi3J7cDSthgGGN-181" value="" style="shape=dataStorage;whiteSpace=wrap;html=1;fixedSize=1;rotation=90;size=4.440883941650441;strokeColor=none;fillColor=#D1D1D1;movable=1;resizable=1;rotatable=1;deletable=1;editable=1;locked=0;connectable=1;" vertex="1" parent="1">
          <mxGeometry x="333" y="757" width="26" height="82" as="geometry" />
        </mxCell>
        <mxCell id="uEJfcoyi3J7cDSthgGGN-182" value="" style="rounded=1;whiteSpace=wrap;html=1;strokeColor=none;fillColor=#B3B3B3;movable=1;resizable=1;rotatable=1;deletable=1;editable=1;locked=0;connectable=1;" vertex="1" parent="1">
          <mxGeometry x="375" y="752.1799999999998" width="3" height="40" as="geometry" />
        </mxCell>
        <mxCell id="uEJfcoyi3J7cDSthgGGN-183" value="" style="rounded=1;whiteSpace=wrap;html=1;strokeColor=none;fillColor=#B3B3B3;movable=1;resizable=1;rotatable=1;deletable=1;editable=1;locked=0;connectable=1;" vertex="1" parent="1">
          <mxGeometry x="376" y="782.1799999999998" width="6" height="10" as="geometry" />
        </mxCell>
        <mxCell id="uEJfcoyi3J7cDSthgGGN-184" value="" style="rounded=0;whiteSpace=wrap;html=1;strokeColor=none;fillColor=#81130e;movable=1;resizable=1;rotatable=1;deletable=1;editable=1;locked=0;connectable=1;" vertex="1" parent="1">
          <mxGeometry x="304" y="247.18000000000006" width="66" height="25" as="geometry" />
        </mxCell>
        <mxCell id="uEJfcoyi3J7cDSthgGGN-185" value="" style="rounded=0;whiteSpace=wrap;html=1;strokeColor=none;fillColor=#D1D1D1;movable=1;resizable=1;rotatable=1;deletable=1;editable=1;locked=0;connectable=1;" vertex="1" parent="1">
          <mxGeometry x="304" y="247.18000000000006" width="6" height="25" as="geometry" />
        </mxCell>
        <mxCell id="uEJfcoyi3J7cDSthgGGN-187" value="" style="shape=or;whiteSpace=wrap;html=1;strokeColor=none;fillColor=#5C5C5C;movable=1;resizable=1;rotatable=1;deletable=1;editable=1;locked=0;connectable=1;" vertex="1" parent="1">
          <mxGeometry x="304" y="257.18000000000006" width="2" height="6" as="geometry" />
        </mxCell>
        <mxCell id="uEJfcoyi3J7cDSthgGGN-188" value="" style="rounded=0;whiteSpace=wrap;html=1;strokeColor=none;fillColor=#D1D1D1;movable=1;resizable=1;rotatable=1;deletable=1;editable=1;locked=0;connectable=1;" vertex="1" parent="1">
          <mxGeometry x="364" y="247.18000000000006" width="6" height="25" as="geometry" />
        </mxCell>
        <mxCell id="uEJfcoyi3J7cDSthgGGN-189" value="" style="shape=or;whiteSpace=wrap;html=1;strokeColor=none;fillColor=#5C5C5C;rotation=-180;movable=1;resizable=1;rotatable=1;deletable=1;editable=1;locked=0;connectable=1;" vertex="1" parent="1">
          <mxGeometry x="368" y="257.18000000000006" width="2" height="6" as="geometry" />
        </mxCell>
        <mxCell id="uEJfcoyi3J7cDSthgGGN-190" value="" style="rounded=0;whiteSpace=wrap;html=1;strokeColor=none;fillColor=#b51d1a;movable=1;resizable=1;rotatable=1;deletable=1;editable=1;locked=0;connectable=1;" vertex="1" parent="1">
          <mxGeometry x="357" y="249.18000000000006" width="7" height="3" as="geometry" />
        </mxCell>
        <mxCell id="uEJfcoyi3J7cDSthgGGN-191" value="" style="rounded=0;whiteSpace=wrap;html=1;strokeColor=none;fillColor=#b51d1a;rotation=-90;movable=1;resizable=1;rotatable=1;deletable=1;editable=1;locked=0;connectable=1;" vertex="1" parent="1">
          <mxGeometry x="354.47" y="254.71000000000004" width="8.07" height="3" as="geometry" />
        </mxCell>
        <mxCell id="uEJfcoyi3J7cDSthgGGN-192" value="" style="rounded=0;whiteSpace=wrap;html=1;strokeColor=none;fillColor=#b51d1a;movable=1;resizable=1;rotatable=1;deletable=1;editable=1;locked=0;connectable=1;" vertex="1" parent="1">
          <mxGeometry x="357" y="258.18000000000006" width="7" height="3" as="geometry" />
        </mxCell>
        <mxCell id="uEJfcoyi3J7cDSthgGGN-193" value="" style="rounded=0;whiteSpace=wrap;html=1;strokeColor=none;fillColor=#b51d1a;movable=1;resizable=1;rotatable=1;deletable=1;editable=1;locked=0;connectable=1;" vertex="1" parent="1">
          <mxGeometry x="344" y="267.43000000000006" width="20" height="3" as="geometry" />
        </mxCell>
        <mxCell id="uEJfcoyi3J7cDSthgGGN-194" value="" style="rounded=0;whiteSpace=wrap;html=1;strokeColor=none;fillColor=#b51d1a;movable=1;resizable=1;rotatable=1;deletable=1;editable=1;locked=0;connectable=1;" vertex="1" parent="1">
          <mxGeometry x="343.25" y="258.18000000000006" width="10.25" height="3" as="geometry" />
        </mxCell>
        <mxCell id="uEJfcoyi3J7cDSthgGGN-195" value="" style="rounded=0;whiteSpace=wrap;html=1;strokeColor=none;fillColor=#b51d1a;rotation=-90;movable=1;resizable=1;rotatable=1;deletable=1;editable=1;locked=0;connectable=1;" vertex="1" parent="1">
          <mxGeometry x="318.5" y="254.18000000000006" width="10" height="3" as="geometry" />
        </mxCell>
        <mxCell id="uEJfcoyi3J7cDSthgGGN-196" value="" style="rounded=0;whiteSpace=wrap;html=1;strokeColor=none;fillColor=#b51d1a;rotation=-90;movable=1;resizable=1;rotatable=1;deletable=1;editable=1;locked=0;connectable=1;" vertex="1" parent="1">
          <mxGeometry x="348" y="254.68000000000006" width="8" height="3" as="geometry" />
        </mxCell>
        <mxCell id="uEJfcoyi3J7cDSthgGGN-197" value="" style="rounded=0;whiteSpace=wrap;html=1;strokeColor=none;fillColor=#b51d1a;movable=1;resizable=1;rotatable=1;deletable=1;editable=1;locked=0;connectable=1;" vertex="1" parent="1">
          <mxGeometry x="328.5" y="249.18000000000006" width="25" height="3" as="geometry" />
        </mxCell>
        <mxCell id="uEJfcoyi3J7cDSthgGGN-208" value="" style="rounded=0;whiteSpace=wrap;html=1;strokeColor=none;fillColor=#b51d1a;rotation=-90;movable=1;resizable=1;rotatable=1;deletable=1;editable=1;locked=0;connectable=1;" vertex="1" parent="1">
          <mxGeometry x="326" y="254.18000000000006" width="8" height="3" as="geometry" />
        </mxCell>
        <mxCell id="uEJfcoyi3J7cDSthgGGN-209" value="" style="rounded=0;whiteSpace=wrap;html=1;strokeColor=none;fillColor=#b51d1a;movable=1;resizable=1;rotatable=1;deletable=1;editable=1;locked=0;connectable=1;" vertex="1" parent="1">
          <mxGeometry x="328.5" y="258.18000000000006" width="11.5" height="3" as="geometry" />
        </mxCell>
        <mxCell id="uEJfcoyi3J7cDSthgGGN-211" value="" style="rounded=0;whiteSpace=wrap;html=1;strokeColor=none;fillColor=#b51d1a;movable=1;resizable=1;rotatable=1;deletable=1;editable=1;locked=0;connectable=1;" vertex="1" parent="1">
          <mxGeometry x="316" y="267.18000000000006" width="24" height="3" as="geometry" />
        </mxCell>
        <mxCell id="uEJfcoyi3J7cDSthgGGN-212" value="" style="rounded=0;whiteSpace=wrap;html=1;strokeColor=none;fillColor=#b51d1a;rotation=-90;movable=1;resizable=1;rotatable=1;deletable=1;editable=1;locked=0;connectable=1;" vertex="1" parent="1">
          <mxGeometry x="311" y="263.43000000000006" width="10.5" height="3" as="geometry" />
        </mxCell>
        <mxCell id="uEJfcoyi3J7cDSthgGGN-213" value="" style="rounded=0;whiteSpace=wrap;html=1;strokeColor=none;fillColor=#b51d1a;movable=1;resizable=1;rotatable=1;deletable=1;editable=1;locked=0;connectable=1;" vertex="1" parent="1">
          <mxGeometry x="314.75" y="258.18000000000006" width="10.25" height="3" as="geometry" />
        </mxCell>
        <mxCell id="uEJfcoyi3J7cDSthgGGN-214" value="" style="rounded=0;whiteSpace=wrap;html=1;strokeColor=none;fillColor=#b51d1a;rotation=-90;movable=1;resizable=1;rotatable=1;deletable=1;editable=1;locked=0;connectable=1;" vertex="1" parent="1">
          <mxGeometry x="340" y="264.18000000000006" width="9.5" height="3" as="geometry" />
        </mxCell>
        <mxCell id="uEJfcoyi3J7cDSthgGGN-215" value="" style="rounded=0;whiteSpace=wrap;html=1;strokeColor=none;fillColor=#b51d1a;movable=1;resizable=1;rotatable=1;deletable=1;editable=1;locked=0;connectable=1;" vertex="1" parent="1">
          <mxGeometry x="310" y="249.18000000000006" width="15" height="3" as="geometry" />
        </mxCell>
        <mxCell id="uEJfcoyi3J7cDSthgGGN-216" value="" style="rounded=0;whiteSpace=wrap;html=1;strokeColor=none;fillColor=#b51d1a;rotation=-90;movable=1;resizable=1;rotatable=1;deletable=1;editable=1;locked=0;connectable=1;" vertex="1" parent="1">
          <mxGeometry x="333.75" y="263.18000000000006" width="9.5" height="3" as="geometry" />
        </mxCell>
        <mxCell id="uEJfcoyi3J7cDSthgGGN-218" value="&lt;b style=&quot;font-size: 10px;&quot;&gt;&lt;font style=&quot;font-size: 10px;&quot; color=&quot;#f2f2f2&quot;&gt;OverAir&lt;/font&gt;&lt;/b&gt;" style="text;html=1;align=left;verticalAlign=middle;rounded=0;rotation=-180;fontSize=10;spacing=2;whiteSpace=wrap;movable=1;resizable=1;rotatable=1;deletable=1;editable=1;locked=0;connectable=1;" vertex="1" parent="1">
          <mxGeometry x="314" y="260.18000000000006" width="39.53" height="11.53" as="geometry" />
        </mxCell>
        <mxCell id="uEJfcoyi3J7cDSthgGGN-220" value="&lt;b style=&quot;font-size: 10px;&quot;&gt;&lt;font color=&quot;#f2f2f2&quot; style=&quot;font-size: 10px;&quot;&gt;W01&lt;/font&gt;&lt;/b&gt;" style="text;html=1;align=right;verticalAlign=middle;whiteSpace=wrap;rounded=0;rotation=-180;fontSize=10;spacing=2;movable=1;resizable=1;rotatable=1;deletable=1;editable=1;locked=0;connectable=1;" vertex="1" parent="1">
          <mxGeometry x="314.75" y="247.18000000000006" width="23.5" height="14" as="geometry" />
        </mxCell>
        <mxCell id="uEJfcoyi3J7cDSthgGGN-222" value="" style="rounded=0;whiteSpace=wrap;html=1;strokeColor=none;movable=1;resizable=1;rotatable=1;deletable=1;editable=1;locked=0;connectable=1;" vertex="1" parent="1">
          <mxGeometry x="357" y="248.18000000000006" width="6" height="23" as="geometry" />
        </mxCell>
        <mxCell id="uEJfcoyi3J7cDSthgGGN-223" value="" style="ellipse;whiteSpace=wrap;html=1;aspect=fixed;strokeColor=none;fillColor=#FFD152;movable=1;resizable=1;rotatable=1;deletable=1;editable=1;locked=0;connectable=1;" vertex="1" parent="1">
          <mxGeometry x="502" y="764.1799999999998" width="10" height="10" as="geometry" />
        </mxCell>
        <mxCell id="uEJfcoyi3J7cDSthgGGN-224" value="" style="ellipse;whiteSpace=wrap;html=1;aspect=fixed;strokeColor=none;fillColor=#FFD152;movable=1;resizable=1;rotatable=1;deletable=1;editable=1;locked=0;connectable=1;" vertex="1" parent="1">
          <mxGeometry x="467" y="407.43000000000006" width="10" height="10" as="geometry" />
        </mxCell>
        <mxCell id="uEJfcoyi3J7cDSthgGGN-225" value="" style="rounded=1;whiteSpace=wrap;html=1;strokeColor=none;fillColor=#FFD152;movable=1;resizable=1;rotatable=1;deletable=1;editable=1;locked=0;connectable=1;" vertex="1" parent="1">
          <mxGeometry x="466" y="424.18000000000006" width="16" height="8" as="geometry" />
        </mxCell>
        <mxCell id="uEJfcoyi3J7cDSthgGGN-226" value="" style="rounded=1;whiteSpace=wrap;html=1;strokeColor=none;fillColor=#FFD152;movable=1;resizable=1;rotatable=1;deletable=1;editable=1;locked=0;connectable=1;" vertex="1" parent="1">
          <mxGeometry x="499" y="424.18000000000006" width="16" height="8" as="geometry" />
        </mxCell>
        <mxCell id="uEJfcoyi3J7cDSthgGGN-227" value="" style="rounded=1;whiteSpace=wrap;html=1;strokeColor=none;fillColor=#FFD152;movable=1;resizable=1;rotatable=1;deletable=1;editable=1;locked=0;connectable=1;" vertex="1" parent="1">
          <mxGeometry x="467" y="490.18000000000006" width="16" height="8" as="geometry" />
        </mxCell>
        <mxCell id="uEJfcoyi3J7cDSthgGGN-228" value="" style="rounded=1;whiteSpace=wrap;html=1;strokeColor=none;fillColor=#FFD152;movable=1;resizable=1;rotatable=1;deletable=1;editable=1;locked=0;connectable=1;" vertex="1" parent="1">
          <mxGeometry x="499" y="490.18000000000006" width="16" height="8" as="geometry" />
        </mxCell>
        <mxCell id="uEJfcoyi3J7cDSthgGGN-36" value="" style="rounded=0;whiteSpace=wrap;html=1;fillColor=#D1D1D1;strokeColor=none;glass=0;shadow=0;movable=1;resizable=1;rotatable=1;deletable=1;editable=1;locked=0;connectable=1;" vertex="1" parent="1">
          <mxGeometry x="470" y="426.18000000000006" width="57" height="70" as="geometry" />
        </mxCell>
        <mxCell id="uEJfcoyi3J7cDSthgGGN-231" value="" style="rounded=1;whiteSpace=wrap;html=1;strokeColor=none;fillColor=#6d7080;movable=1;resizable=1;rotatable=1;deletable=1;editable=1;locked=0;connectable=1;" vertex="1" parent="1">
          <mxGeometry x="473" y="468.18000000000006" width="5" height="21" as="geometry" />
        </mxCell>
        <mxCell id="uEJfcoyi3J7cDSthgGGN-232" value="" style="rounded=1;whiteSpace=wrap;html=1;strokeColor=none;fillColor=#6d7080;movable=1;resizable=1;rotatable=1;deletable=1;editable=1;locked=0;connectable=1;" vertex="1" parent="1">
          <mxGeometry x="467" y="484.18000000000006" width="10" height="5" as="geometry" />
        </mxCell>
        <mxCell id="uEJfcoyi3J7cDSthgGGN-233" value="" style="rounded=0;whiteSpace=wrap;html=1;fillColor=#D1D1D1;strokeColor=none;glass=0;shadow=0;movable=1;resizable=1;rotatable=1;deletable=1;editable=1;locked=0;connectable=1;" vertex="1" parent="1">
          <mxGeometry x="466" y="426.18000000000006" width="9" height="8" as="geometry" />
        </mxCell>
        <mxCell id="uEJfcoyi3J7cDSthgGGN-235" value="" style="rounded=0;whiteSpace=wrap;html=1;fillColor=#D1D1D1;strokeColor=none;glass=0;shadow=0;movable=1;resizable=1;rotatable=1;deletable=1;editable=1;locked=0;connectable=1;" vertex="1" parent="1">
          <mxGeometry x="467" y="489.18000000000006" width="10" height="7" as="geometry" />
        </mxCell>
        <mxCell id="uEJfcoyi3J7cDSthgGGN-236" value="" style="rounded=1;whiteSpace=wrap;html=1;strokeColor=none;fillColor=#6d7080;movable=1;resizable=1;rotatable=1;deletable=1;editable=1;locked=0;connectable=1;" vertex="1" parent="1">
          <mxGeometry x="473" y="434.18000000000006" width="5" height="21" as="geometry" />
        </mxCell>
        <mxCell id="uEJfcoyi3J7cDSthgGGN-237" value="" style="rounded=1;whiteSpace=wrap;html=1;strokeColor=none;fillColor=#6d7080;movable=1;resizable=1;rotatable=1;deletable=1;editable=1;locked=0;connectable=1;" vertex="1" parent="1">
          <mxGeometry x="466" y="434.18000000000006" width="10" height="5" as="geometry" />
        </mxCell>
        <mxCell id="uEJfcoyi3J7cDSthgGGN-238" value="" style="rounded=0;whiteSpace=wrap;html=1;strokeColor=none;fillColor=#FFD152;movable=1;resizable=1;rotatable=1;deletable=1;editable=1;locked=0;connectable=1;" vertex="1" parent="1">
          <mxGeometry x="464" y="340.18000000000006" width="6" height="3" as="geometry" />
        </mxCell>
        <mxCell id="uEJfcoyi3J7cDSthgGGN-239" value="" style="rounded=0;whiteSpace=wrap;html=1;strokeColor=none;fillColor=#FFD152;movable=1;resizable=1;rotatable=1;deletable=1;editable=1;locked=0;connectable=1;" vertex="1" parent="1">
          <mxGeometry x="464" y="344.18000000000006" width="6" height="3" as="geometry" />
        </mxCell>
        <mxCell id="uEJfcoyi3J7cDSthgGGN-240" value="" style="rounded=0;whiteSpace=wrap;html=1;strokeColor=none;fillColor=#FFD152;movable=1;resizable=1;rotatable=1;deletable=1;editable=1;locked=0;connectable=1;" vertex="1" parent="1">
          <mxGeometry x="464" y="349.18000000000006" width="6" height="3" as="geometry" />
        </mxCell>
        <mxCell id="uEJfcoyi3J7cDSthgGGN-241" value="" style="rounded=0;whiteSpace=wrap;html=1;strokeColor=none;fillColor=#FFD152;movable=1;resizable=1;rotatable=1;deletable=1;editable=1;locked=0;connectable=1;" vertex="1" parent="1">
          <mxGeometry x="464" y="354.18000000000006" width="6" height="3" as="geometry" />
        </mxCell>
        <mxCell id="uEJfcoyi3J7cDSthgGGN-242" value="" style="rounded=0;whiteSpace=wrap;html=1;strokeColor=none;fillColor=#FFD152;movable=1;resizable=1;rotatable=1;deletable=1;editable=1;locked=0;connectable=1;" vertex="1" parent="1">
          <mxGeometry x="464" y="359.18000000000006" width="6" height="3" as="geometry" />
        </mxCell>
        <mxCell id="uEJfcoyi3J7cDSthgGGN-243" value="" style="rounded=0;whiteSpace=wrap;html=1;strokeColor=none;fillColor=#FFD152;movable=1;resizable=1;rotatable=1;deletable=1;editable=1;locked=0;connectable=1;" vertex="1" parent="1">
          <mxGeometry x="464" y="364.18000000000006" width="6" height="3" as="geometry" />
        </mxCell>
        <mxCell id="uEJfcoyi3J7cDSthgGGN-244" value="" style="rounded=0;whiteSpace=wrap;html=1;strokeColor=none;fillColor=#FFD152;movable=1;resizable=1;rotatable=1;deletable=1;editable=1;locked=0;connectable=1;" vertex="1" parent="1">
          <mxGeometry x="464" y="369.18000000000006" width="6" height="3" as="geometry" />
        </mxCell>
        <mxCell id="uEJfcoyi3J7cDSthgGGN-245" value="" style="rounded=0;whiteSpace=wrap;html=1;strokeColor=none;fillColor=#FFD152;movable=1;resizable=1;rotatable=1;deletable=1;editable=1;locked=0;connectable=1;" vertex="1" parent="1">
          <mxGeometry x="464" y="374.18000000000006" width="6" height="3" as="geometry" />
        </mxCell>
        <mxCell id="uEJfcoyi3J7cDSthgGGN-246" value="" style="rounded=0;whiteSpace=wrap;html=1;strokeColor=none;fillColor=#FFD152;movable=1;resizable=1;rotatable=1;deletable=1;editable=1;locked=0;connectable=1;" vertex="1" parent="1">
          <mxGeometry x="464" y="380.18000000000006" width="6" height="3" as="geometry" />
        </mxCell>
        <mxCell id="uEJfcoyi3J7cDSthgGGN-247" value="" style="rounded=0;whiteSpace=wrap;html=1;strokeColor=none;fillColor=#FFD152;movable=1;resizable=1;rotatable=1;deletable=1;editable=1;locked=0;connectable=1;" vertex="1" parent="1">
          <mxGeometry x="464" y="384.18000000000006" width="6" height="3" as="geometry" />
        </mxCell>
        <mxCell id="uEJfcoyi3J7cDSthgGGN-248" value="" style="rounded=1;whiteSpace=wrap;html=1;strokeColor=none;fillColor=#FFD152;movable=1;resizable=1;rotatable=1;deletable=1;editable=1;locked=0;connectable=1;" vertex="1" parent="1">
          <mxGeometry x="466" y="326.18000000000006" width="16" height="8" as="geometry" />
        </mxCell>
        <mxCell id="uEJfcoyi3J7cDSthgGGN-249" value="" style="rounded=1;whiteSpace=wrap;html=1;strokeColor=none;fillColor=#FFD152;movable=1;resizable=1;rotatable=1;deletable=1;editable=1;locked=0;connectable=1;" vertex="1" parent="1">
          <mxGeometry x="499" y="326.18000000000006" width="16" height="8" as="geometry" />
        </mxCell>
        <mxCell id="uEJfcoyi3J7cDSthgGGN-250" value="" style="rounded=1;whiteSpace=wrap;html=1;strokeColor=none;fillColor=#FFD152;movable=1;resizable=1;rotatable=1;deletable=1;editable=1;locked=0;connectable=1;" vertex="1" parent="1">
          <mxGeometry x="467" y="392.18000000000006" width="16" height="8" as="geometry" />
        </mxCell>
        <mxCell id="uEJfcoyi3J7cDSthgGGN-251" value="" style="rounded=1;whiteSpace=wrap;html=1;strokeColor=none;fillColor=#FFD152;movable=1;resizable=1;rotatable=1;deletable=1;editable=1;locked=0;connectable=1;" vertex="1" parent="1">
          <mxGeometry x="499" y="392.18000000000006" width="16" height="8" as="geometry" />
        </mxCell>
        <mxCell id="uEJfcoyi3J7cDSthgGGN-252" value="" style="rounded=0;whiteSpace=wrap;html=1;fillColor=#D1D1D1;strokeColor=none;glass=0;shadow=0;movable=1;resizable=1;rotatable=1;deletable=1;editable=1;locked=0;connectable=1;" vertex="1" parent="1">
          <mxGeometry x="470" y="328.18000000000006" width="57" height="70" as="geometry" />
        </mxCell>
        <mxCell id="uEJfcoyi3J7cDSthgGGN-253" value="" style="rounded=1;whiteSpace=wrap;html=1;strokeColor=none;fillColor=#6d7080;movable=1;resizable=1;rotatable=1;deletable=1;editable=1;locked=0;connectable=1;" vertex="1" parent="1">
          <mxGeometry x="473" y="370.18000000000006" width="5" height="21" as="geometry" />
        </mxCell>
        <mxCell id="uEJfcoyi3J7cDSthgGGN-254" value="" style="rounded=1;whiteSpace=wrap;html=1;strokeColor=none;fillColor=#6d7080;movable=1;resizable=1;rotatable=1;deletable=1;editable=1;locked=0;connectable=1;" vertex="1" parent="1">
          <mxGeometry x="467" y="386.18000000000006" width="10" height="5" as="geometry" />
        </mxCell>
        <mxCell id="uEJfcoyi3J7cDSthgGGN-255" value="" style="rounded=0;whiteSpace=wrap;html=1;fillColor=#D1D1D1;strokeColor=none;glass=0;shadow=0;movable=1;resizable=1;rotatable=1;deletable=1;editable=1;locked=0;connectable=1;" vertex="1" parent="1">
          <mxGeometry x="466" y="328.18000000000006" width="9" height="8" as="geometry" />
        </mxCell>
        <mxCell id="uEJfcoyi3J7cDSthgGGN-256" value="" style="rounded=0;whiteSpace=wrap;html=1;fillColor=#D1D1D1;strokeColor=none;glass=0;shadow=0;movable=1;resizable=1;rotatable=1;deletable=1;editable=1;locked=0;connectable=1;" vertex="1" parent="1">
          <mxGeometry x="467" y="391.18000000000006" width="10" height="7" as="geometry" />
        </mxCell>
        <mxCell id="uEJfcoyi3J7cDSthgGGN-257" value="" style="rounded=1;whiteSpace=wrap;html=1;strokeColor=none;fillColor=#6d7080;movable=1;resizable=1;rotatable=1;deletable=1;editable=1;locked=0;connectable=1;" vertex="1" parent="1">
          <mxGeometry x="473" y="336.18000000000006" width="5" height="21" as="geometry" />
        </mxCell>
        <mxCell id="uEJfcoyi3J7cDSthgGGN-258" value="" style="rounded=1;whiteSpace=wrap;html=1;strokeColor=none;fillColor=#6d7080;movable=1;resizable=1;rotatable=1;deletable=1;editable=1;locked=0;connectable=1;" vertex="1" parent="1">
          <mxGeometry x="466" y="336.18000000000006" width="10" height="5" as="geometry" />
        </mxCell>
        <mxCell id="uEJfcoyi3J7cDSthgGGN-259" value="" style="rounded=0;whiteSpace=wrap;html=1;strokeColor=none;fillColor=#dfd1d3;movable=1;resizable=1;rotatable=1;deletable=1;editable=1;locked=0;connectable=1;" vertex="1" parent="1">
          <mxGeometry x="384" y="247.18000000000006" width="25" height="25" as="geometry" />
        </mxCell>
        <mxCell id="uEJfcoyi3J7cDSthgGGN-260" value="" style="ellipse;whiteSpace=wrap;html=1;aspect=fixed;strokeColor=none;fillColor=#BAA01E;movable=1;resizable=1;rotatable=1;deletable=1;editable=1;locked=0;connectable=1;" vertex="1" parent="1">
          <mxGeometry x="388" y="251.18000000000006" width="17" height="17" as="geometry" />
        </mxCell>
        <mxCell id="uEJfcoyi3J7cDSthgGGN-261" value="" style="ellipse;whiteSpace=wrap;html=1;aspect=fixed;strokeColor=none;fillColor=#DFD1D3;movable=1;resizable=1;rotatable=1;deletable=1;editable=1;locked=0;connectable=1;" vertex="1" parent="1">
          <mxGeometry x="390" y="253.18000000000006" width="13" height="13" as="geometry" />
        </mxCell>
        <mxCell id="uEJfcoyi3J7cDSthgGGN-263" value="" style="ellipse;whiteSpace=wrap;html=1;aspect=fixed;strokeColor=none;fillColor=#BAA01E;movable=1;resizable=1;rotatable=1;deletable=1;editable=1;locked=0;connectable=1;" vertex="1" parent="1">
          <mxGeometry x="393.38" y="256.54999999999995" width="6.25" height="6.25" as="geometry" />
        </mxCell>
        <mxCell id="uEJfcoyi3J7cDSthgGGN-264" value="" style="rounded=0;whiteSpace=wrap;html=1;strokeColor=none;fillColor=#BAA01E;movable=1;resizable=1;rotatable=1;deletable=1;editable=1;locked=0;connectable=1;" vertex="1" parent="1">
          <mxGeometry x="395" y="267.18000000000006" width="3" height="5" as="geometry" />
        </mxCell>
        <mxCell id="uEJfcoyi3J7cDSthgGGN-267" value="" style="rounded=0;whiteSpace=wrap;html=1;strokeColor=none;fillColor=#D1D1D1;movable=1;resizable=1;rotatable=1;deletable=1;editable=1;locked=0;connectable=1;" vertex="1" parent="1">
          <mxGeometry x="409" y="250.18000000000006" width="1" height="19" as="geometry" />
        </mxCell>
        <mxCell id="uEJfcoyi3J7cDSthgGGN-268" value="" style="rounded=0;whiteSpace=wrap;html=1;strokeColor=none;fillColor=#D1D1D1;movable=1;resizable=1;rotatable=1;deletable=1;editable=1;locked=0;connectable=1;" vertex="1" parent="1">
          <mxGeometry x="383" y="250.18000000000006" width="1" height="19" as="geometry" />
        </mxCell>
        <mxCell id="uEJfcoyi3J7cDSthgGGN-269" value="" style="rounded=0;whiteSpace=wrap;html=1;strokeColor=none;fillColor=#b1947e;movable=1;resizable=1;rotatable=1;deletable=1;editable=1;locked=0;connectable=1;" vertex="1" parent="1">
          <mxGeometry x="422" y="247.18000000000006" width="10" height="10" as="geometry" />
        </mxCell>
        <mxCell id="uEJfcoyi3J7cDSthgGGN-272" value="" style="rounded=0;whiteSpace=wrap;html=1;strokeColor=none;fillColor=#453A31;movable=1;resizable=1;rotatable=1;deletable=1;editable=1;locked=0;connectable=1;" vertex="1" parent="1">
          <mxGeometry x="425" y="253.64999999999998" width="4" height="3" as="geometry" />
        </mxCell>
        <mxCell id="uEJfcoyi3J7cDSthgGGN-273" value="" style="rounded=0;whiteSpace=wrap;html=1;strokeColor=none;fillColor=#b1947e;movable=1;resizable=1;rotatable=1;deletable=1;editable=1;locked=0;connectable=1;" vertex="1" parent="1">
          <mxGeometry x="436" y="247.18000000000006" width="10" height="10" as="geometry" />
        </mxCell>
        <mxCell id="uEJfcoyi3J7cDSthgGGN-274" value="" style="rounded=0;whiteSpace=wrap;html=1;strokeColor=none;fillColor=#453A31;movable=1;resizable=1;rotatable=1;deletable=1;editable=1;locked=0;connectable=1;" vertex="1" parent="1">
          <mxGeometry x="439" y="253.64999999999998" width="4" height="3" as="geometry" />
        </mxCell>
        <mxCell id="uEJfcoyi3J7cDSthgGGN-275" value="" style="rounded=0;whiteSpace=wrap;html=1;strokeColor=none;fillColor=#b1947e;movable=1;resizable=1;rotatable=1;deletable=1;editable=1;locked=0;connectable=1;" vertex="1" parent="1">
          <mxGeometry x="422" y="262.71000000000004" width="10" height="10" as="geometry" />
        </mxCell>
        <mxCell id="uEJfcoyi3J7cDSthgGGN-276" value="" style="rounded=0;whiteSpace=wrap;html=1;strokeColor=none;fillColor=#453A31;movable=1;resizable=1;rotatable=1;deletable=1;editable=1;locked=0;connectable=1;" vertex="1" parent="1">
          <mxGeometry x="423" y="266.18000000000006" width="4" height="3" as="geometry" />
        </mxCell>
        <mxCell id="uEJfcoyi3J7cDSthgGGN-277" value="" style="rounded=0;whiteSpace=wrap;html=1;strokeColor=none;fillColor=#b1947e;movable=1;resizable=1;rotatable=1;deletable=1;editable=1;locked=0;connectable=1;" vertex="1" parent="1">
          <mxGeometry x="436" y="262.71000000000004" width="10" height="10" as="geometry" />
        </mxCell>
        <mxCell id="uEJfcoyi3J7cDSthgGGN-278" value="" style="rounded=0;whiteSpace=wrap;html=1;strokeColor=none;fillColor=#453A31;movable=1;resizable=1;rotatable=1;deletable=1;editable=1;locked=0;connectable=1;" vertex="1" parent="1">
          <mxGeometry x="437" y="266.18000000000006" width="4" height="3" as="geometry" />
        </mxCell>
        <mxCell id="uEJfcoyi3J7cDSthgGGN-280" value="" style="rounded=1;whiteSpace=wrap;html=1;strokeColor=none;fillColor=#FFD152;movable=1;resizable=1;rotatable=1;deletable=1;editable=1;locked=0;connectable=1;" vertex="1" parent="1">
          <mxGeometry x="299" y="344.18000000000006" width="8" height="4" as="geometry" />
        </mxCell>
        <mxCell id="uEJfcoyi3J7cDSthgGGN-281" value="" style="rounded=1;whiteSpace=wrap;html=1;strokeColor=none;fillColor=#FFD152;movable=1;resizable=1;rotatable=1;deletable=1;editable=1;locked=0;connectable=1;" vertex="1" parent="1">
          <mxGeometry x="299" y="353.68000000000006" width="8" height="4" as="geometry" />
        </mxCell>
        <mxCell id="uEJfcoyi3J7cDSthgGGN-282" value="" style="rounded=1;whiteSpace=wrap;html=1;strokeColor=none;fillColor=#FFD152;movable=1;resizable=1;rotatable=1;deletable=1;editable=1;locked=0;connectable=1;" vertex="1" parent="1">
          <mxGeometry x="299" y="363.18000000000006" width="8" height="4" as="geometry" />
        </mxCell>
        <mxCell id="uEJfcoyi3J7cDSthgGGN-283" value="" style="rounded=1;whiteSpace=wrap;html=1;strokeColor=none;fillColor=#FFD152;movable=1;resizable=1;rotatable=1;deletable=1;editable=1;locked=0;connectable=1;" vertex="1" parent="1">
          <mxGeometry x="299" y="372.18000000000006" width="8" height="4" as="geometry" />
        </mxCell>
        <mxCell id="uEJfcoyi3J7cDSthgGGN-284" value="" style="rounded=1;whiteSpace=wrap;html=1;strokeColor=none;fillColor=#FFD152;movable=1;resizable=1;rotatable=1;deletable=1;editable=1;locked=0;connectable=1;" vertex="1" parent="1">
          <mxGeometry x="299" y="381.18000000000006" width="8" height="4" as="geometry" />
        </mxCell>
        <mxCell id="uEJfcoyi3J7cDSthgGGN-285" value="" style="rounded=1;whiteSpace=wrap;html=1;strokeColor=none;fillColor=#FFD152;movable=1;resizable=1;rotatable=1;deletable=1;editable=1;locked=0;connectable=1;" vertex="1" parent="1">
          <mxGeometry x="299" y="390.68000000000006" width="8" height="4" as="geometry" />
        </mxCell>
        <mxCell id="uEJfcoyi3J7cDSthgGGN-286" value="" style="rounded=1;whiteSpace=wrap;html=1;strokeColor=none;fillColor=#FFD152;movable=1;resizable=1;rotatable=1;deletable=1;editable=1;locked=0;connectable=1;" vertex="1" parent="1">
          <mxGeometry x="299" y="400.18000000000006" width="8" height="4" as="geometry" />
        </mxCell>
        <mxCell id="uEJfcoyi3J7cDSthgGGN-287" value="" style="rounded=1;whiteSpace=wrap;html=1;strokeColor=none;fillColor=#FFD152;movable=1;resizable=1;rotatable=1;deletable=1;editable=1;locked=0;connectable=1;" vertex="1" parent="1">
          <mxGeometry x="299" y="409.18000000000006" width="8" height="4" as="geometry" />
        </mxCell>
        <mxCell id="uEJfcoyi3J7cDSthgGGN-288" value="" style="rounded=1;whiteSpace=wrap;html=1;strokeColor=none;fillColor=#FFD152;movable=1;resizable=1;rotatable=1;deletable=1;editable=1;locked=0;connectable=1;" vertex="1" parent="1">
          <mxGeometry x="299" y="418.18000000000006" width="8" height="4" as="geometry" />
        </mxCell>
        <mxCell id="uEJfcoyi3J7cDSthgGGN-289" value="" style="rounded=1;whiteSpace=wrap;html=1;strokeColor=none;fillColor=#FFD152;movable=1;resizable=1;rotatable=1;deletable=1;editable=1;locked=0;connectable=1;" vertex="1" parent="1">
          <mxGeometry x="299" y="427.68000000000006" width="8" height="4" as="geometry" />
        </mxCell>
        <mxCell id="uEJfcoyi3J7cDSthgGGN-290" value="" style="rounded=1;whiteSpace=wrap;html=1;strokeColor=none;fillColor=#FFD152;movable=1;resizable=1;rotatable=1;deletable=1;editable=1;locked=0;connectable=1;" vertex="1" parent="1">
          <mxGeometry x="299" y="436.68000000000006" width="8" height="4" as="geometry" />
        </mxCell>
        <mxCell id="uEJfcoyi3J7cDSthgGGN-313" value="" style="rounded=1;whiteSpace=wrap;html=1;strokeColor=none;fillColor=#FFD152;movable=1;resizable=1;rotatable=1;deletable=1;editable=1;locked=0;connectable=1;" vertex="1" parent="1">
          <mxGeometry x="416" y="343.43000000000006" width="8" height="4" as="geometry" />
        </mxCell>
        <mxCell id="uEJfcoyi3J7cDSthgGGN-314" value="" style="rounded=1;whiteSpace=wrap;html=1;strokeColor=none;fillColor=#FFD152;movable=1;resizable=1;rotatable=1;deletable=1;editable=1;locked=0;connectable=1;" vertex="1" parent="1">
          <mxGeometry x="416" y="352.93000000000006" width="8" height="4" as="geometry" />
        </mxCell>
        <mxCell id="uEJfcoyi3J7cDSthgGGN-315" value="" style="rounded=1;whiteSpace=wrap;html=1;strokeColor=none;fillColor=#FFD152;movable=1;resizable=1;rotatable=1;deletable=1;editable=1;locked=0;connectable=1;" vertex="1" parent="1">
          <mxGeometry x="416" y="362.43000000000006" width="8" height="4" as="geometry" />
        </mxCell>
        <mxCell id="uEJfcoyi3J7cDSthgGGN-316" value="" style="rounded=1;whiteSpace=wrap;html=1;strokeColor=none;fillColor=#FFD152;movable=1;resizable=1;rotatable=1;deletable=1;editable=1;locked=0;connectable=1;" vertex="1" parent="1">
          <mxGeometry x="416" y="371.43000000000006" width="8" height="4" as="geometry" />
        </mxCell>
        <mxCell id="uEJfcoyi3J7cDSthgGGN-317" value="" style="rounded=1;whiteSpace=wrap;html=1;strokeColor=none;fillColor=#FFD152;movable=1;resizable=1;rotatable=1;deletable=1;editable=1;locked=0;connectable=1;" vertex="1" parent="1">
          <mxGeometry x="416" y="380.43000000000006" width="8" height="4" as="geometry" />
        </mxCell>
        <mxCell id="uEJfcoyi3J7cDSthgGGN-318" value="" style="rounded=1;whiteSpace=wrap;html=1;strokeColor=none;fillColor=#FFD152;movable=1;resizable=1;rotatable=1;deletable=1;editable=1;locked=0;connectable=1;" vertex="1" parent="1">
          <mxGeometry x="416" y="389.93000000000006" width="8" height="4" as="geometry" />
        </mxCell>
        <mxCell id="uEJfcoyi3J7cDSthgGGN-319" value="" style="rounded=1;whiteSpace=wrap;html=1;strokeColor=none;fillColor=#FFD152;movable=1;resizable=1;rotatable=1;deletable=1;editable=1;locked=0;connectable=1;" vertex="1" parent="1">
          <mxGeometry x="416" y="399.43000000000006" width="8" height="4" as="geometry" />
        </mxCell>
        <mxCell id="uEJfcoyi3J7cDSthgGGN-320" value="" style="rounded=1;whiteSpace=wrap;html=1;strokeColor=none;fillColor=#FFD152;movable=1;resizable=1;rotatable=1;deletable=1;editable=1;locked=0;connectable=1;" vertex="1" parent="1">
          <mxGeometry x="416" y="408.43000000000006" width="8" height="4" as="geometry" />
        </mxCell>
        <mxCell id="uEJfcoyi3J7cDSthgGGN-321" value="" style="rounded=1;whiteSpace=wrap;html=1;strokeColor=none;fillColor=#FFD152;movable=1;resizable=1;rotatable=1;deletable=1;editable=1;locked=0;connectable=1;" vertex="1" parent="1">
          <mxGeometry x="416" y="417.43000000000006" width="8" height="4" as="geometry" />
        </mxCell>
        <mxCell id="uEJfcoyi3J7cDSthgGGN-322" value="" style="rounded=1;whiteSpace=wrap;html=1;strokeColor=none;fillColor=#FFD152;movable=1;resizable=1;rotatable=1;deletable=1;editable=1;locked=0;connectable=1;" vertex="1" parent="1">
          <mxGeometry x="416" y="426.93000000000006" width="8" height="4" as="geometry" />
        </mxCell>
        <mxCell id="uEJfcoyi3J7cDSthgGGN-323" value="" style="rounded=1;whiteSpace=wrap;html=1;strokeColor=none;fillColor=#FFD152;movable=1;resizable=1;rotatable=1;deletable=1;editable=1;locked=0;connectable=1;" vertex="1" parent="1">
          <mxGeometry x="416" y="435.93000000000006" width="8" height="4" as="geometry" />
        </mxCell>
        <mxCell id="uEJfcoyi3J7cDSthgGGN-335" value="" style="group;rotation=-90;movable=1;resizable=1;rotatable=1;deletable=1;editable=1;locked=0;connectable=1;" vertex="1" connectable="0" parent="1">
          <mxGeometry x="358" y="285.18000000000006" width="8" height="96.5" as="geometry" />
        </mxCell>
        <mxCell id="uEJfcoyi3J7cDSthgGGN-324" value="" style="rounded=1;whiteSpace=wrap;html=1;strokeColor=none;fillColor=#FFD152;rotation=-90;movable=1;resizable=1;rotatable=1;deletable=1;editable=1;locked=0;connectable=1;" vertex="1" parent="uEJfcoyi3J7cDSthgGGN-335">
          <mxGeometry x="-46" y="46" width="8" height="4" as="geometry" />
        </mxCell>
        <mxCell id="uEJfcoyi3J7cDSthgGGN-325" value="" style="rounded=1;whiteSpace=wrap;html=1;strokeColor=none;fillColor=#FFD152;rotation=-90;movable=1;resizable=1;rotatable=1;deletable=1;editable=1;locked=0;connectable=1;" vertex="1" parent="uEJfcoyi3J7cDSthgGGN-335">
          <mxGeometry x="-37" y="46" width="8" height="4" as="geometry" />
        </mxCell>
        <mxCell id="uEJfcoyi3J7cDSthgGGN-326" value="" style="rounded=1;whiteSpace=wrap;html=1;strokeColor=none;fillColor=#FFD152;rotation=-90;movable=1;resizable=1;rotatable=1;deletable=1;editable=1;locked=0;connectable=1;" vertex="1" parent="uEJfcoyi3J7cDSthgGGN-335">
          <mxGeometry x="-27" y="46" width="8" height="4" as="geometry" />
        </mxCell>
        <mxCell id="uEJfcoyi3J7cDSthgGGN-327" value="" style="rounded=1;whiteSpace=wrap;html=1;strokeColor=none;fillColor=#FFD152;rotation=-90;movable=1;resizable=1;rotatable=1;deletable=1;editable=1;locked=0;connectable=1;" vertex="1" parent="uEJfcoyi3J7cDSthgGGN-335">
          <mxGeometry x="-18" y="46" width="8" height="4" as="geometry" />
        </mxCell>
        <mxCell id="uEJfcoyi3J7cDSthgGGN-328" value="" style="rounded=1;whiteSpace=wrap;html=1;strokeColor=none;fillColor=#FFD152;rotation=-90;movable=1;resizable=1;rotatable=1;deletable=1;editable=1;locked=0;connectable=1;" vertex="1" parent="uEJfcoyi3J7cDSthgGGN-335">
          <mxGeometry x="-9" y="46" width="8" height="4" as="geometry" />
        </mxCell>
        <mxCell id="uEJfcoyi3J7cDSthgGGN-329" value="" style="rounded=1;whiteSpace=wrap;html=1;strokeColor=none;fillColor=#FFD152;rotation=-90;movable=1;resizable=1;rotatable=1;deletable=1;editable=1;locked=0;connectable=1;" vertex="1" parent="uEJfcoyi3J7cDSthgGGN-335">
          <mxGeometry y="46" width="8" height="4" as="geometry" />
        </mxCell>
        <mxCell id="uEJfcoyi3J7cDSthgGGN-330" value="" style="rounded=1;whiteSpace=wrap;html=1;strokeColor=none;fillColor=#FFD152;rotation=-90;movable=1;resizable=1;rotatable=1;deletable=1;editable=1;locked=0;connectable=1;" vertex="1" parent="uEJfcoyi3J7cDSthgGGN-335">
          <mxGeometry x="10" y="46" width="8" height="4" as="geometry" />
        </mxCell>
        <mxCell id="uEJfcoyi3J7cDSthgGGN-331" value="" style="rounded=1;whiteSpace=wrap;html=1;strokeColor=none;fillColor=#FFD152;rotation=-90;movable=1;resizable=1;rotatable=1;deletable=1;editable=1;locked=0;connectable=1;" vertex="1" parent="uEJfcoyi3J7cDSthgGGN-335">
          <mxGeometry x="19" y="46" width="8" height="4" as="geometry" />
        </mxCell>
        <mxCell id="uEJfcoyi3J7cDSthgGGN-332" value="" style="rounded=1;whiteSpace=wrap;html=1;strokeColor=none;fillColor=#FFD152;rotation=-90;movable=1;resizable=1;rotatable=1;deletable=1;editable=1;locked=0;connectable=1;" vertex="1" parent="uEJfcoyi3J7cDSthgGGN-335">
          <mxGeometry x="28" y="46" width="8" height="4" as="geometry" />
        </mxCell>
        <mxCell id="uEJfcoyi3J7cDSthgGGN-333" value="" style="rounded=1;whiteSpace=wrap;html=1;strokeColor=none;fillColor=#FFD152;rotation=-90;movable=1;resizable=1;rotatable=1;deletable=1;editable=1;locked=0;connectable=1;" vertex="1" parent="uEJfcoyi3J7cDSthgGGN-335">
          <mxGeometry x="37" y="46" width="8" height="4" as="geometry" />
        </mxCell>
        <mxCell id="uEJfcoyi3J7cDSthgGGN-334" value="" style="rounded=1;whiteSpace=wrap;html=1;strokeColor=none;fillColor=#FFD152;rotation=-90;movable=1;resizable=1;rotatable=1;deletable=1;editable=1;locked=0;connectable=1;" vertex="1" parent="uEJfcoyi3J7cDSthgGGN-335">
          <mxGeometry x="46" y="46" width="8" height="4" as="geometry" />
        </mxCell>
        <mxCell id="uEJfcoyi3J7cDSthgGGN-336" value="" style="group;rotation=-90;movable=1;resizable=1;rotatable=1;deletable=1;editable=1;locked=0;connectable=1;" vertex="1" connectable="0" parent="1">
          <mxGeometry x="356" y="402.18000000000006" width="8" height="96.5" as="geometry" />
        </mxCell>
        <mxCell id="uEJfcoyi3J7cDSthgGGN-337" value="" style="rounded=1;whiteSpace=wrap;html=1;strokeColor=none;fillColor=#FFD152;rotation=-90;movable=1;resizable=1;rotatable=1;deletable=1;editable=1;locked=0;connectable=1;" vertex="1" parent="uEJfcoyi3J7cDSthgGGN-336">
          <mxGeometry x="-46" y="46" width="8" height="4" as="geometry" />
        </mxCell>
        <mxCell id="uEJfcoyi3J7cDSthgGGN-338" value="" style="rounded=1;whiteSpace=wrap;html=1;strokeColor=none;fillColor=#FFD152;rotation=-90;movable=1;resizable=1;rotatable=1;deletable=1;editable=1;locked=0;connectable=1;" vertex="1" parent="uEJfcoyi3J7cDSthgGGN-336">
          <mxGeometry x="-37" y="46" width="8" height="4" as="geometry" />
        </mxCell>
        <mxCell id="uEJfcoyi3J7cDSthgGGN-339" value="" style="rounded=1;whiteSpace=wrap;html=1;strokeColor=none;fillColor=#FFD152;rotation=-90;movable=1;resizable=1;rotatable=1;deletable=1;editable=1;locked=0;connectable=1;" vertex="1" parent="uEJfcoyi3J7cDSthgGGN-336">
          <mxGeometry x="-27" y="46" width="8" height="4" as="geometry" />
        </mxCell>
        <mxCell id="uEJfcoyi3J7cDSthgGGN-340" value="" style="rounded=1;whiteSpace=wrap;html=1;strokeColor=none;fillColor=#FFD152;rotation=-90;movable=1;resizable=1;rotatable=1;deletable=1;editable=1;locked=0;connectable=1;" vertex="1" parent="uEJfcoyi3J7cDSthgGGN-336">
          <mxGeometry x="-18" y="46" width="8" height="4" as="geometry" />
        </mxCell>
        <mxCell id="uEJfcoyi3J7cDSthgGGN-341" value="" style="rounded=1;whiteSpace=wrap;html=1;strokeColor=none;fillColor=#FFD152;rotation=-90;movable=1;resizable=1;rotatable=1;deletable=1;editable=1;locked=0;connectable=1;" vertex="1" parent="uEJfcoyi3J7cDSthgGGN-336">
          <mxGeometry x="-9" y="46" width="8" height="4" as="geometry" />
        </mxCell>
        <mxCell id="uEJfcoyi3J7cDSthgGGN-342" value="" style="rounded=1;whiteSpace=wrap;html=1;strokeColor=none;fillColor=#FFD152;rotation=-90;movable=1;resizable=1;rotatable=1;deletable=1;editable=1;locked=0;connectable=1;" vertex="1" parent="uEJfcoyi3J7cDSthgGGN-336">
          <mxGeometry y="46" width="8" height="4" as="geometry" />
        </mxCell>
        <mxCell id="uEJfcoyi3J7cDSthgGGN-343" value="" style="rounded=1;whiteSpace=wrap;html=1;strokeColor=none;fillColor=#FFD152;rotation=-90;movable=1;resizable=1;rotatable=1;deletable=1;editable=1;locked=0;connectable=1;" vertex="1" parent="uEJfcoyi3J7cDSthgGGN-336">
          <mxGeometry x="10" y="46" width="8" height="4" as="geometry" />
        </mxCell>
        <mxCell id="uEJfcoyi3J7cDSthgGGN-344" value="" style="rounded=1;whiteSpace=wrap;html=1;strokeColor=none;fillColor=#FFD152;rotation=-90;movable=1;resizable=1;rotatable=1;deletable=1;editable=1;locked=0;connectable=1;" vertex="1" parent="uEJfcoyi3J7cDSthgGGN-336">
          <mxGeometry x="19" y="46" width="8" height="4" as="geometry" />
        </mxCell>
        <mxCell id="uEJfcoyi3J7cDSthgGGN-345" value="" style="rounded=1;whiteSpace=wrap;html=1;strokeColor=none;fillColor=#FFD152;rotation=-90;movable=1;resizable=1;rotatable=1;deletable=1;editable=1;locked=0;connectable=1;" vertex="1" parent="uEJfcoyi3J7cDSthgGGN-336">
          <mxGeometry x="28" y="46" width="8" height="4" as="geometry" />
        </mxCell>
        <mxCell id="uEJfcoyi3J7cDSthgGGN-346" value="" style="rounded=1;whiteSpace=wrap;html=1;strokeColor=none;fillColor=#FFD152;rotation=-90;movable=1;resizable=1;rotatable=1;deletable=1;editable=1;locked=0;connectable=1;" vertex="1" parent="uEJfcoyi3J7cDSthgGGN-336">
          <mxGeometry x="37" y="46" width="8" height="4" as="geometry" />
        </mxCell>
        <mxCell id="uEJfcoyi3J7cDSthgGGN-347" value="" style="rounded=1;whiteSpace=wrap;html=1;strokeColor=none;fillColor=#FFD152;rotation=-90;movable=1;resizable=1;rotatable=1;deletable=1;editable=1;locked=0;connectable=1;" vertex="1" parent="uEJfcoyi3J7cDSthgGGN-336">
          <mxGeometry x="46" y="46" width="8" height="4" as="geometry" />
        </mxCell>
        <mxCell id="uEJfcoyi3J7cDSthgGGN-279" value="" style="rounded=0;whiteSpace=wrap;html=1;strokeColor=none;fillColor=#292518;movable=1;resizable=1;rotatable=1;deletable=1;editable=1;locked=0;connectable=1;" vertex="1" parent="1">
          <mxGeometry x="305" y="336.18000000000006" width="112" height="111" as="geometry" />
        </mxCell>
        <mxCell id="uEJfcoyi3J7cDSthgGGN-350" value="" style="rounded=0;whiteSpace=wrap;html=1;strokeColor=none;fillColor=#D1D1D1;movable=1;resizable=1;rotatable=1;deletable=1;editable=1;locked=0;connectable=1;" vertex="1" parent="1">
          <mxGeometry x="311" y="343.43000000000006" width="3" height="95.75" as="geometry" />
        </mxCell>
        <mxCell id="uEJfcoyi3J7cDSthgGGN-351" value="" style="rounded=0;whiteSpace=wrap;html=1;strokeColor=none;fillColor=#D1D1D1;movable=1;resizable=1;rotatable=1;deletable=1;editable=1;locked=0;connectable=1;" vertex="1" parent="1">
          <mxGeometry x="311.25" y="343.18000000000006" width="15.75" height="2.75" as="geometry" />
        </mxCell>
        <mxCell id="uEJfcoyi3J7cDSthgGGN-352" value="" style="rounded=0;whiteSpace=wrap;html=1;strokeColor=none;fillColor=#D1D1D1;movable=1;resizable=1;rotatable=1;deletable=1;editable=1;locked=0;connectable=1;" vertex="1" parent="1">
          <mxGeometry x="344.13" y="343.18000000000006" width="32.87" height="2.75" as="geometry" />
        </mxCell>
        <mxCell id="uEJfcoyi3J7cDSthgGGN-353" value="" style="rounded=0;whiteSpace=wrap;html=1;strokeColor=none;fillColor=#D1D1D1;movable=1;resizable=1;rotatable=1;deletable=1;editable=1;locked=0;connectable=1;" vertex="1" parent="1">
          <mxGeometry x="407" y="343.18000000000006" width="3" height="95.75" as="geometry" />
        </mxCell>
        <mxCell id="uEJfcoyi3J7cDSthgGGN-354" value="" style="rounded=0;whiteSpace=wrap;html=1;strokeColor=none;fillColor=#D1D1D1;movable=1;resizable=1;rotatable=1;deletable=1;editable=1;locked=0;connectable=1;" vertex="1" parent="1">
          <mxGeometry x="387" y="438.18000000000006" width="23" height="2.75" as="geometry" />
        </mxCell>
        <mxCell id="uEJfcoyi3J7cDSthgGGN-355" value="" style="rounded=0;whiteSpace=wrap;html=1;strokeColor=none;fillColor=#D1D1D1;movable=1;resizable=1;rotatable=1;deletable=1;editable=1;locked=0;connectable=1;" vertex="1" parent="1">
          <mxGeometry x="311" y="438.18000000000006" width="56" height="2.75" as="geometry" />
        </mxCell>
        <mxCell id="uEJfcoyi3J7cDSthgGGN-356" value="" style="rounded=0;whiteSpace=wrap;html=1;strokeColor=none;fillColor=#D1D1D1;movable=1;resizable=1;rotatable=1;deletable=1;editable=1;locked=0;connectable=1;" vertex="1" parent="1">
          <mxGeometry x="397" y="343.18000000000006" width="12.87" height="2.75" as="geometry" />
        </mxCell>
        <mxCell id="uEJfcoyi3J7cDSthgGGN-357" value="" style="rounded=0;whiteSpace=wrap;html=1;strokeColor=none;fillColor=#3a6a9a;movable=1;resizable=1;rotatable=1;deletable=1;editable=1;locked=0;connectable=1;" vertex="1" parent="1">
          <mxGeometry x="333" y="391.18000000000006" width="53.5" height="36.5" as="geometry" />
        </mxCell>
        <mxCell id="uEJfcoyi3J7cDSthgGGN-358" value="" style="rounded=0;whiteSpace=wrap;html=1;strokeColor=none;fillColor=#a37d68;movable=1;resizable=1;rotatable=1;deletable=1;editable=1;locked=0;connectable=1;" vertex="1" parent="1">
          <mxGeometry x="317" y="410.18000000000006" width="11" height="6" as="geometry" />
        </mxCell>
        <mxCell id="uEJfcoyi3J7cDSthgGGN-360" value="" style="rounded=0;whiteSpace=wrap;html=1;strokeColor=none;fillColor=#a37d68;movable=1;resizable=1;rotatable=1;deletable=1;editable=1;locked=0;connectable=1;" vertex="1" parent="1">
          <mxGeometry x="317" y="418.18000000000006" width="11" height="6" as="geometry" />
        </mxCell>
        <mxCell id="uEJfcoyi3J7cDSthgGGN-361" value="" style="rounded=0;whiteSpace=wrap;html=1;strokeColor=none;fillColor=#a37d68;movable=1;resizable=1;rotatable=1;deletable=1;editable=1;locked=0;connectable=1;" vertex="1" parent="1">
          <mxGeometry x="317" y="430.18000000000006" width="11" height="6" as="geometry" />
        </mxCell>
        <mxCell id="uEJfcoyi3J7cDSthgGGN-362" value="" style="rounded=0;whiteSpace=wrap;html=1;strokeColor=none;fillColor=#958683;movable=1;resizable=1;rotatable=1;deletable=1;editable=1;locked=0;connectable=1;" vertex="1" parent="1">
          <mxGeometry x="317" y="397.18000000000006" width="6" height="3" as="geometry" />
        </mxCell>
        <mxCell id="uEJfcoyi3J7cDSthgGGN-363" value="" style="rounded=0;whiteSpace=wrap;html=1;strokeColor=none;fillColor=#958683;movable=1;resizable=1;rotatable=1;deletable=1;editable=1;locked=0;connectable=1;" vertex="1" parent="1">
          <mxGeometry x="317" y="401.18000000000006" width="6" height="3" as="geometry" />
        </mxCell>
        <mxCell id="uEJfcoyi3J7cDSthgGGN-364" value="" style="rounded=0;whiteSpace=wrap;html=1;strokeColor=none;fillColor=#958683;movable=1;resizable=1;rotatable=1;deletable=1;editable=1;locked=0;connectable=1;" vertex="1" parent="1">
          <mxGeometry x="389" y="420.68000000000006" width="6" height="3" as="geometry" />
        </mxCell>
        <mxCell id="uEJfcoyi3J7cDSthgGGN-365" value="" style="rounded=0;whiteSpace=wrap;html=1;strokeColor=none;fillColor=#958683;movable=1;resizable=1;rotatable=1;deletable=1;editable=1;locked=0;connectable=1;" vertex="1" parent="1">
          <mxGeometry x="389" y="424.68000000000006" width="6" height="3" as="geometry" />
        </mxCell>
        <mxCell id="uEJfcoyi3J7cDSthgGGN-367" value="" style="rounded=0;whiteSpace=wrap;html=1;strokeColor=none;fillColor=#958683;movable=1;resizable=1;rotatable=1;deletable=1;editable=1;locked=0;connectable=1;" vertex="1" parent="1">
          <mxGeometry x="389" y="416.43000000000006" width="6" height="3" as="geometry" />
        </mxCell>
        <mxCell id="uEJfcoyi3J7cDSthgGGN-369" value="" style="rounded=0;whiteSpace=wrap;html=1;strokeColor=none;fillColor=#c0b0b5;movable=1;resizable=1;rotatable=1;deletable=1;editable=1;locked=0;connectable=1;" vertex="1" parent="1">
          <mxGeometry x="383" y="361.43000000000006" width="21" height="14" as="geometry" />
        </mxCell>
        <mxCell id="uEJfcoyi3J7cDSthgGGN-370" value="" style="rounded=0;whiteSpace=wrap;html=1;strokeColor=none;fillColor=#958683;movable=1;resizable=1;rotatable=1;deletable=1;editable=1;locked=0;connectable=1;" vertex="1" parent="1">
          <mxGeometry x="374" y="430.18000000000006" width="3" height="5.5" as="geometry" />
        </mxCell>
        <mxCell id="uEJfcoyi3J7cDSthgGGN-371" value="" style="rounded=0;whiteSpace=wrap;html=1;strokeColor=none;fillColor=#958683;movable=1;resizable=1;rotatable=1;deletable=1;editable=1;locked=0;connectable=1;" vertex="1" parent="1">
          <mxGeometry x="378" y="430.18000000000006" width="3" height="5.5" as="geometry" />
        </mxCell>
        <mxCell id="uEJfcoyi3J7cDSthgGGN-372" value="" style="rounded=0;whiteSpace=wrap;html=1;strokeColor=none;fillColor=#999999;movable=1;resizable=1;rotatable=1;deletable=1;editable=1;locked=0;connectable=1;" vertex="1" parent="1">
          <mxGeometry x="382" y="430.18000000000006" width="3" height="5.5" as="geometry" />
        </mxCell>
        <mxCell id="uEJfcoyi3J7cDSthgGGN-373" value="" style="rounded=0;whiteSpace=wrap;html=1;strokeColor=none;fillColor=#958683;movable=1;resizable=1;rotatable=1;deletable=1;editable=1;locked=0;connectable=1;" vertex="1" parent="1">
          <mxGeometry x="349" y="430.18000000000006" width="3" height="5.5" as="geometry" />
        </mxCell>
        <mxCell id="uEJfcoyi3J7cDSthgGGN-374" value="" style="rounded=0;whiteSpace=wrap;html=1;strokeColor=none;fillColor=#958683;movable=1;resizable=1;rotatable=1;deletable=1;editable=1;locked=0;connectable=1;" vertex="1" parent="1">
          <mxGeometry x="353" y="430.18000000000006" width="3" height="5.5" as="geometry" />
        </mxCell>
        <mxCell id="uEJfcoyi3J7cDSthgGGN-375" value="" style="rounded=0;whiteSpace=wrap;html=1;strokeColor=none;fillColor=#999999;movable=1;resizable=1;rotatable=1;deletable=1;editable=1;locked=0;connectable=1;" vertex="1" parent="1">
          <mxGeometry x="357" y="430.18000000000006" width="3" height="5.5" as="geometry" />
        </mxCell>
        <mxCell id="uEJfcoyi3J7cDSthgGGN-376" value="" style="rounded=0;whiteSpace=wrap;html=1;strokeColor=none;fillColor=#958683;movable=1;resizable=1;rotatable=1;deletable=1;editable=1;locked=0;connectable=1;" vertex="1" parent="1">
          <mxGeometry x="362.53999999999996" y="369.18000000000006" width="3" height="5.5" as="geometry" />
        </mxCell>
        <mxCell id="uEJfcoyi3J7cDSthgGGN-377" value="" style="rounded=0;whiteSpace=wrap;html=1;strokeColor=none;fillColor=#958683;movable=1;resizable=1;rotatable=1;deletable=1;editable=1;locked=0;connectable=1;" vertex="1" parent="1">
          <mxGeometry x="366.53999999999996" y="369.18000000000006" width="3" height="5.5" as="geometry" />
        </mxCell>
        <mxCell id="uEJfcoyi3J7cDSthgGGN-378" value="" style="rounded=0;whiteSpace=wrap;html=1;strokeColor=none;fillColor=#999999;movable=1;resizable=1;rotatable=1;deletable=1;editable=1;locked=0;connectable=1;" vertex="1" parent="1">
          <mxGeometry x="370.53999999999996" y="369.18000000000006" width="3" height="5.5" as="geometry" />
        </mxCell>
        <mxCell id="uEJfcoyi3J7cDSthgGGN-379" value="" style="rounded=0;whiteSpace=wrap;html=1;strokeColor=none;fillColor=#958683;movable=1;resizable=1;rotatable=1;deletable=1;editable=1;locked=0;connectable=1;" vertex="1" parent="1">
          <mxGeometry x="389" y="410.04999999999995" width="6" height="3" as="geometry" />
        </mxCell>
        <mxCell id="uEJfcoyi3J7cDSthgGGN-380" value="" style="rounded=0;whiteSpace=wrap;html=1;strokeColor=none;fillColor=#958683;movable=1;resizable=1;rotatable=1;deletable=1;editable=1;locked=0;connectable=1;" vertex="1" parent="1">
          <mxGeometry x="389" y="405.79999999999995" width="6" height="3" as="geometry" />
        </mxCell>
        <mxCell id="uEJfcoyi3J7cDSthgGGN-381" value="" style="rounded=0;whiteSpace=wrap;html=1;strokeColor=none;fillColor=#958683;movable=1;resizable=1;rotatable=1;deletable=1;editable=1;locked=0;connectable=1;" vertex="1" parent="1">
          <mxGeometry x="389" y="387.68000000000006" width="6" height="3" as="geometry" />
        </mxCell>
        <mxCell id="uEJfcoyi3J7cDSthgGGN-382" value="" style="rounded=0;whiteSpace=wrap;html=1;strokeColor=none;fillColor=#958683;movable=1;resizable=1;rotatable=1;deletable=1;editable=1;locked=0;connectable=1;" vertex="1" parent="1">
          <mxGeometry x="389" y="383.43000000000006" width="6" height="3" as="geometry" />
        </mxCell>
        <mxCell id="uEJfcoyi3J7cDSthgGGN-383" value="" style="rounded=0;whiteSpace=wrap;html=1;strokeColor=none;fillColor=#958683;movable=1;resizable=1;rotatable=1;deletable=1;editable=1;locked=0;connectable=1;" vertex="1" parent="1">
          <mxGeometry x="379" y="348.18000000000006" width="6" height="3" as="geometry" />
        </mxCell>
        <mxCell id="uEJfcoyi3J7cDSthgGGN-384" value="" style="rounded=0;whiteSpace=wrap;html=1;strokeColor=none;fillColor=#958683;movable=1;resizable=1;rotatable=1;deletable=1;editable=1;locked=0;connectable=1;" vertex="1" parent="1">
          <mxGeometry x="369.53999999999996" y="348.18000000000006" width="6" height="3" as="geometry" />
        </mxCell>
        <mxCell id="uEJfcoyi3J7cDSthgGGN-385" value="" style="rounded=0;whiteSpace=wrap;html=1;strokeColor=none;fillColor=#958683;movable=1;resizable=1;rotatable=1;deletable=1;editable=1;locked=0;connectable=1;" vertex="1" parent="1">
          <mxGeometry x="323" y="366.43000000000006" width="3" height="5.5" as="geometry" />
        </mxCell>
        <mxCell id="uEJfcoyi3J7cDSthgGGN-386" value="" style="rounded=0;whiteSpace=wrap;html=1;strokeColor=none;fillColor=#999999;movable=1;resizable=1;rotatable=1;deletable=1;editable=1;locked=0;connectable=1;" vertex="1" parent="1">
          <mxGeometry x="323" y="374.18000000000006" width="3" height="5.5" as="geometry" />
        </mxCell>
        <mxCell id="uEJfcoyi3J7cDSthgGGN-387" value="" style="rounded=0;whiteSpace=wrap;html=1;strokeColor=none;fillColor=#999999;movable=1;resizable=1;rotatable=1;deletable=1;editable=1;locked=0;connectable=1;" vertex="1" parent="1">
          <mxGeometry x="367.5" y="356.68000000000006" width="3" height="5.5" as="geometry" />
        </mxCell>
        <mxCell id="uEJfcoyi3J7cDSthgGGN-388" value="" style="rounded=0;whiteSpace=wrap;html=1;strokeColor=none;fillColor=#958683;movable=1;resizable=1;rotatable=1;deletable=1;editable=1;locked=0;connectable=1;" vertex="1" parent="1">
          <mxGeometry x="364.53999999999996" y="363.68000000000006" width="6" height="3" as="geometry" />
        </mxCell>
        <mxCell id="uEJfcoyi3J7cDSthgGGN-389" value="" style="rounded=0;whiteSpace=wrap;html=1;strokeColor=none;fillColor=#958683;rotation=-90;movable=1;resizable=1;rotatable=1;deletable=1;editable=1;locked=0;connectable=1;" vertex="1" parent="1">
          <mxGeometry x="363" y="384.18000000000006" width="6" height="3" as="geometry" />
        </mxCell>
        <mxCell id="uEJfcoyi3J7cDSthgGGN-391" value="" style="rounded=0;whiteSpace=wrap;html=1;strokeColor=none;fillColor=#999999;movable=1;resizable=1;rotatable=1;deletable=1;editable=1;locked=0;connectable=1;" vertex="1" parent="1">
          <mxGeometry x="377" y="382.93000000000006" width="3" height="5.5" as="geometry" />
        </mxCell>
        <mxCell id="uEJfcoyi3J7cDSthgGGN-394" value="" style="rounded=1;whiteSpace=wrap;html=1;strokeColor=none;fillColor=#ADA6AB;movable=1;resizable=1;rotatable=1;deletable=1;editable=1;locked=0;connectable=1;" vertex="1" parent="1">
          <mxGeometry x="319" y="299.18000000000006" width="12" height="17" as="geometry" />
        </mxCell>
        <mxCell id="uEJfcoyi3J7cDSthgGGN-395" value="" style="rounded=0;whiteSpace=wrap;html=1;strokeColor=none;fillColor=#a37d68;rotation=-90;movable=1;resizable=1;rotatable=1;deletable=1;editable=1;locked=0;connectable=1;" vertex="1" parent="1">
          <mxGeometry x="333" y="307.18000000000006" width="11" height="6" as="geometry" />
        </mxCell>
        <mxCell id="uEJfcoyi3J7cDSthgGGN-397" value="" style="rounded=0;whiteSpace=wrap;html=1;strokeColor=none;fillColor=#a37d68;rotation=-90;movable=1;resizable=1;rotatable=1;deletable=1;editable=1;locked=0;connectable=1;" vertex="1" parent="1">
          <mxGeometry x="343" y="307.18000000000006" width="11" height="6" as="geometry" />
        </mxCell>
        <mxCell id="uEJfcoyi3J7cDSthgGGN-398" value="" style="rounded=0;whiteSpace=wrap;html=1;strokeColor=none;fillColor=#a37d68;rotation=-180;movable=1;resizable=1;rotatable=1;deletable=1;editable=1;locked=0;connectable=1;" vertex="1" parent="1">
          <mxGeometry x="319.5" y="289.18000000000006" width="11" height="6" as="geometry" />
        </mxCell>
        <mxCell id="uEJfcoyi3J7cDSthgGGN-399" value="" style="ellipse;whiteSpace=wrap;html=1;aspect=fixed;strokeColor=none;fillColor=#FFD152;movable=1;resizable=1;rotatable=1;deletable=1;editable=1;locked=0;connectable=1;" vertex="1" parent="1">
          <mxGeometry x="287" y="307.18000000000006" width="10" height="10" as="geometry" />
        </mxCell>
        <mxCell id="uEJfcoyi3J7cDSthgGGN-400" value="" style="ellipse;whiteSpace=wrap;html=1;aspect=fixed;strokeColor=none;fillColor=#FFD152;movable=1;resizable=1;rotatable=1;deletable=1;editable=1;locked=0;connectable=1;" vertex="1" parent="1">
          <mxGeometry x="292" y="772.1799999999998" width="10" height="10" as="geometry" />
        </mxCell>
        <mxCell id="uEJfcoyi3J7cDSthgGGN-407" value="" style="group;movable=1;resizable=1;rotatable=1;deletable=1;editable=1;locked=0;connectable=1;" vertex="1" connectable="0" parent="1">
          <mxGeometry x="446" y="336.18000000000006" width="6" height="11" as="geometry" />
        </mxCell>
        <mxCell id="uEJfcoyi3J7cDSthgGGN-408" value="" style="rounded=0;whiteSpace=wrap;html=1;strokeColor=none;fillColor=#292926;rotation=-90;movable=1;resizable=1;rotatable=1;deletable=1;editable=1;locked=0;connectable=1;" vertex="1" parent="uEJfcoyi3J7cDSthgGGN-407">
          <mxGeometry x="-2.5" y="2.5" width="11" height="6" as="geometry" />
        </mxCell>
        <mxCell id="uEJfcoyi3J7cDSthgGGN-409" value="" style="rounded=0;whiteSpace=wrap;html=1;strokeColor=none;fillColor=#D1D1D1;rotation=-90;movable=1;resizable=1;rotatable=1;deletable=1;editable=1;locked=0;connectable=1;" vertex="1" parent="uEJfcoyi3J7cDSthgGGN-407">
          <mxGeometry x="2" y="-2" width="2" height="6" as="geometry" />
        </mxCell>
        <mxCell id="uEJfcoyi3J7cDSthgGGN-410" value="" style="rounded=0;whiteSpace=wrap;html=1;strokeColor=none;fillColor=#D1D1D1;rotation=-90;movable=1;resizable=1;rotatable=1;deletable=1;editable=1;locked=0;connectable=1;" vertex="1" parent="uEJfcoyi3J7cDSthgGGN-407">
          <mxGeometry x="2" y="7" width="2" height="6" as="geometry" />
        </mxCell>
        <mxCell id="uEJfcoyi3J7cDSthgGGN-422" value="" style="group;movable=1;resizable=1;rotatable=1;deletable=1;editable=1;locked=0;connectable=1;" vertex="1" connectable="0" parent="1">
          <mxGeometry x="446" y="360.18000000000006" width="6" height="11" as="geometry" />
        </mxCell>
        <mxCell id="uEJfcoyi3J7cDSthgGGN-423" value="" style="rounded=0;whiteSpace=wrap;html=1;strokeColor=none;fillColor=#292926;rotation=-90;movable=1;resizable=1;rotatable=1;deletable=1;editable=1;locked=0;connectable=1;" vertex="1" parent="uEJfcoyi3J7cDSthgGGN-422">
          <mxGeometry x="-2.5" y="2.5" width="11" height="6" as="geometry" />
        </mxCell>
        <mxCell id="uEJfcoyi3J7cDSthgGGN-424" value="" style="rounded=0;whiteSpace=wrap;html=1;strokeColor=none;fillColor=#D1D1D1;rotation=-90;movable=1;resizable=1;rotatable=1;deletable=1;editable=1;locked=0;connectable=1;" vertex="1" parent="uEJfcoyi3J7cDSthgGGN-422">
          <mxGeometry x="2" y="-2" width="2" height="6" as="geometry" />
        </mxCell>
        <mxCell id="uEJfcoyi3J7cDSthgGGN-425" value="" style="rounded=0;whiteSpace=wrap;html=1;strokeColor=none;fillColor=#D1D1D1;rotation=-90;movable=1;resizable=1;rotatable=1;deletable=1;editable=1;locked=0;connectable=1;" vertex="1" parent="uEJfcoyi3J7cDSthgGGN-422">
          <mxGeometry x="2" y="7" width="2" height="6" as="geometry" />
        </mxCell>
        <mxCell id="uEJfcoyi3J7cDSthgGGN-427" value="" style="group;movable=1;resizable=1;rotatable=1;deletable=1;editable=1;locked=0;connectable=1;" vertex="1" connectable="0" parent="1">
          <mxGeometry x="446" y="386.18000000000006" width="6" height="11" as="geometry" />
        </mxCell>
        <mxCell id="uEJfcoyi3J7cDSthgGGN-428" value="" style="rounded=0;whiteSpace=wrap;html=1;strokeColor=none;fillColor=#292926;rotation=-90;movable=1;resizable=1;rotatable=1;deletable=1;editable=1;locked=0;connectable=1;" vertex="1" parent="uEJfcoyi3J7cDSthgGGN-427">
          <mxGeometry x="-2.5" y="2.5" width="11" height="6" as="geometry" />
        </mxCell>
        <mxCell id="uEJfcoyi3J7cDSthgGGN-429" value="" style="rounded=0;whiteSpace=wrap;html=1;strokeColor=none;fillColor=#D1D1D1;rotation=-90;movable=1;resizable=1;rotatable=1;deletable=1;editable=1;locked=0;connectable=1;" vertex="1" parent="uEJfcoyi3J7cDSthgGGN-427">
          <mxGeometry x="2" y="-2" width="2" height="6" as="geometry" />
        </mxCell>
        <mxCell id="uEJfcoyi3J7cDSthgGGN-430" value="" style="rounded=0;whiteSpace=wrap;html=1;strokeColor=none;fillColor=#D1D1D1;rotation=-90;movable=1;resizable=1;rotatable=1;deletable=1;editable=1;locked=0;connectable=1;" vertex="1" parent="uEJfcoyi3J7cDSthgGGN-427">
          <mxGeometry x="2" y="7" width="2" height="6" as="geometry" />
        </mxCell>
        <mxCell id="uEJfcoyi3J7cDSthgGGN-431" value="" style="group;movable=1;resizable=1;rotatable=1;deletable=1;editable=1;locked=0;connectable=1;" vertex="1" connectable="0" parent="1">
          <mxGeometry x="446" y="406.18000000000006" width="6" height="11" as="geometry" />
        </mxCell>
        <mxCell id="uEJfcoyi3J7cDSthgGGN-432" value="" style="rounded=0;whiteSpace=wrap;html=1;strokeColor=none;fillColor=#292926;rotation=-90;movable=1;resizable=1;rotatable=1;deletable=1;editable=1;locked=0;connectable=1;" vertex="1" parent="uEJfcoyi3J7cDSthgGGN-431">
          <mxGeometry x="-2.5" y="2.5" width="11" height="6" as="geometry" />
        </mxCell>
        <mxCell id="uEJfcoyi3J7cDSthgGGN-433" value="" style="rounded=0;whiteSpace=wrap;html=1;strokeColor=none;fillColor=#D1D1D1;rotation=-90;movable=1;resizable=1;rotatable=1;deletable=1;editable=1;locked=0;connectable=1;" vertex="1" parent="uEJfcoyi3J7cDSthgGGN-431">
          <mxGeometry x="2" y="-2" width="2" height="6" as="geometry" />
        </mxCell>
        <mxCell id="uEJfcoyi3J7cDSthgGGN-434" value="" style="rounded=0;whiteSpace=wrap;html=1;strokeColor=none;fillColor=#D1D1D1;rotation=-90;movable=1;resizable=1;rotatable=1;deletable=1;editable=1;locked=0;connectable=1;" vertex="1" parent="uEJfcoyi3J7cDSthgGGN-431">
          <mxGeometry x="2" y="7" width="2" height="6" as="geometry" />
        </mxCell>
        <mxCell id="uEJfcoyi3J7cDSthgGGN-441" value="" style="group;movable=1;resizable=1;rotatable=1;deletable=1;editable=1;locked=0;connectable=1;" vertex="1" connectable="0" parent="1">
          <mxGeometry x="297" y="516.1800000000001" width="6" height="11" as="geometry" />
        </mxCell>
        <mxCell id="uEJfcoyi3J7cDSthgGGN-442" value="" style="rounded=0;whiteSpace=wrap;html=1;strokeColor=none;fillColor=#292926;rotation=-90;movable=1;resizable=1;rotatable=1;deletable=1;editable=1;locked=0;connectable=1;" vertex="1" parent="uEJfcoyi3J7cDSthgGGN-441">
          <mxGeometry x="-2.5" y="2.5" width="11" height="6" as="geometry" />
        </mxCell>
        <mxCell id="uEJfcoyi3J7cDSthgGGN-443" value="" style="rounded=0;whiteSpace=wrap;html=1;strokeColor=none;fillColor=#D1D1D1;rotation=-90;movable=1;resizable=1;rotatable=1;deletable=1;editable=1;locked=0;connectable=1;" vertex="1" parent="uEJfcoyi3J7cDSthgGGN-441">
          <mxGeometry x="2" y="-2" width="2" height="6" as="geometry" />
        </mxCell>
        <mxCell id="uEJfcoyi3J7cDSthgGGN-444" value="" style="rounded=0;whiteSpace=wrap;html=1;strokeColor=none;fillColor=#D1D1D1;rotation=-90;movable=1;resizable=1;rotatable=1;deletable=1;editable=1;locked=0;connectable=1;" vertex="1" parent="uEJfcoyi3J7cDSthgGGN-441">
          <mxGeometry x="2" y="7" width="2" height="6" as="geometry" />
        </mxCell>
        <mxCell id="uEJfcoyi3J7cDSthgGGN-445" value="" style="group;rotation=90;movable=1;resizable=1;rotatable=1;deletable=1;editable=1;locked=0;connectable=1;" vertex="1" connectable="0" parent="1">
          <mxGeometry x="324" y="715.18" width="6" height="11" as="geometry" />
        </mxCell>
        <mxCell id="uEJfcoyi3J7cDSthgGGN-446" value="" style="rounded=0;whiteSpace=wrap;html=1;strokeColor=none;fillColor=#292926;rotation=0;movable=1;resizable=1;rotatable=1;deletable=1;editable=1;locked=0;connectable=1;" vertex="1" parent="uEJfcoyi3J7cDSthgGGN-445">
          <mxGeometry x="-2" y="3" width="11" height="6" as="geometry" />
        </mxCell>
        <mxCell id="uEJfcoyi3J7cDSthgGGN-447" value="" style="rounded=0;whiteSpace=wrap;html=1;strokeColor=none;fillColor=#D1D1D1;rotation=0;movable=1;resizable=1;rotatable=1;deletable=1;editable=1;locked=0;connectable=1;" vertex="1" parent="uEJfcoyi3J7cDSthgGGN-445">
          <mxGeometry x="7" y="3" width="2" height="6" as="geometry" />
        </mxCell>
        <mxCell id="uEJfcoyi3J7cDSthgGGN-448" value="" style="rounded=0;whiteSpace=wrap;html=1;strokeColor=none;fillColor=#D1D1D1;rotation=0;movable=1;resizable=1;rotatable=1;deletable=1;editable=1;locked=0;connectable=1;" vertex="1" parent="uEJfcoyi3J7cDSthgGGN-445">
          <mxGeometry x="-2" y="3" width="2" height="6" as="geometry" />
        </mxCell>
        <mxCell id="uEJfcoyi3J7cDSthgGGN-449" value="" style="group;rotation=90;movable=1;resizable=1;rotatable=1;deletable=1;editable=1;locked=0;connectable=1;" vertex="1" connectable="0" parent="1">
          <mxGeometry x="302" y="715.18" width="6" height="11" as="geometry" />
        </mxCell>
        <mxCell id="uEJfcoyi3J7cDSthgGGN-450" value="" style="rounded=0;whiteSpace=wrap;html=1;strokeColor=none;fillColor=#292926;rotation=0;movable=1;resizable=1;rotatable=1;deletable=1;editable=1;locked=0;connectable=1;" vertex="1" parent="uEJfcoyi3J7cDSthgGGN-449">
          <mxGeometry x="-2" y="3" width="11" height="6" as="geometry" />
        </mxCell>
        <mxCell id="uEJfcoyi3J7cDSthgGGN-451" value="" style="rounded=0;whiteSpace=wrap;html=1;strokeColor=none;fillColor=#D1D1D1;rotation=0;movable=1;resizable=1;rotatable=1;deletable=1;editable=1;locked=0;connectable=1;" vertex="1" parent="uEJfcoyi3J7cDSthgGGN-449">
          <mxGeometry x="7" y="3" width="2" height="6" as="geometry" />
        </mxCell>
        <mxCell id="uEJfcoyi3J7cDSthgGGN-452" value="" style="rounded=0;whiteSpace=wrap;html=1;strokeColor=none;fillColor=#D1D1D1;rotation=0;movable=1;resizable=1;rotatable=1;deletable=1;editable=1;locked=0;connectable=1;" vertex="1" parent="uEJfcoyi3J7cDSthgGGN-449">
          <mxGeometry x="-2" y="3" width="2" height="6" as="geometry" />
        </mxCell>
        <mxCell id="uEJfcoyi3J7cDSthgGGN-457" value="" style="rounded=1;whiteSpace=wrap;html=1;strokeColor=none;fillColor=#EBEBEB;movable=1;resizable=1;rotatable=1;deletable=1;editable=1;locked=0;connectable=1;" vertex="1" parent="1">
          <mxGeometry x="412" y="815.1799999999998" width="21" height="10" as="geometry" />
        </mxCell>
        <mxCell id="uEJfcoyi3J7cDSthgGGN-460" value="" style="rounded=1;whiteSpace=wrap;html=1;strokeColor=none;fillColor=#EBEBEB;movable=1;resizable=1;rotatable=1;deletable=1;editable=1;locked=0;connectable=1;" vertex="1" parent="1">
          <mxGeometry x="411.5" y="767.1799999999998" width="21" height="10" as="geometry" />
        </mxCell>
        <mxCell id="uEJfcoyi3J7cDSthgGGN-453" value="" style="rounded=1;whiteSpace=wrap;html=1;strokeColor=none;fillColor=#D1D1D1;movable=1;resizable=1;rotatable=1;deletable=1;editable=1;locked=0;connectable=1;" vertex="1" parent="1">
          <mxGeometry x="407" y="776.1799999999998" width="30" height="40" as="geometry" />
        </mxCell>
        <mxCell id="uEJfcoyi3J7cDSthgGGN-459" value="" style="ellipse;whiteSpace=wrap;html=1;aspect=fixed;strokeColor=none;fillColor=#4D4D4D;movable=1;resizable=1;rotatable=1;deletable=1;editable=1;locked=0;connectable=1;" vertex="1" parent="1">
          <mxGeometry x="412.5" y="786.1799999999998" width="20" height="20" as="geometry" />
        </mxCell>
        <mxCell id="uEJfcoyi3J7cDSthgGGN-461" value="" style="rounded=1;whiteSpace=wrap;html=1;fillColor=#46a45d;movable=1;resizable=1;rotatable=1;deletable=1;editable=1;locked=0;connectable=1;" vertex="1" parent="1">
          <mxGeometry x="244" y="334.18000000000006" width="20" height="20" as="geometry" />
        </mxCell>
        <mxCell id="uEJfcoyi3J7cDSthgGGN-462" value="" style="rounded=1;whiteSpace=wrap;html=1;fillColor=#2B2B2B;movable=1;resizable=1;rotatable=1;deletable=1;editable=1;locked=0;connectable=1;" vertex="1" parent="1">
          <mxGeometry x="264" y="334.18000000000006" width="20" height="20" as="geometry" />
        </mxCell>
        <mxCell id="uEJfcoyi3J7cDSthgGGN-464" value="" style="rounded=1;whiteSpace=wrap;html=1;fillColor=#46a45d;movable=1;resizable=1;rotatable=1;deletable=1;editable=1;locked=0;connectable=1;" vertex="1" parent="1">
          <mxGeometry x="244" y="354.18000000000006" width="20" height="20" as="geometry" />
        </mxCell>
        <mxCell id="uEJfcoyi3J7cDSthgGGN-465" value="" style="rounded=1;whiteSpace=wrap;html=1;fillColor=#46a45d;movable=1;resizable=1;rotatable=1;deletable=1;editable=1;locked=0;connectable=1;" vertex="1" parent="1">
          <mxGeometry x="264" y="354.18000000000006" width="20" height="20" as="geometry" />
        </mxCell>
        <mxCell id="uEJfcoyi3J7cDSthgGGN-466" value="" style="rounded=1;whiteSpace=wrap;html=1;fillColor=#46a45d;movable=1;resizable=1;rotatable=1;deletable=1;editable=1;locked=0;connectable=1;" vertex="1" parent="1">
          <mxGeometry x="244" y="374.18000000000006" width="20" height="20" as="geometry" />
        </mxCell>
        <mxCell id="uEJfcoyi3J7cDSthgGGN-467" value="" style="rounded=1;whiteSpace=wrap;html=1;fillColor=#46a45d;movable=1;resizable=1;rotatable=1;deletable=1;editable=1;locked=0;connectable=1;" vertex="1" parent="1">
          <mxGeometry x="264" y="374.18000000000006" width="20" height="20" as="geometry" />
        </mxCell>
        <mxCell id="uEJfcoyi3J7cDSthgGGN-468" value="" style="rounded=1;whiteSpace=wrap;html=1;fillColor=#2B2B2B;movable=1;resizable=1;rotatable=1;deletable=1;editable=1;locked=0;connectable=1;" vertex="1" parent="1">
          <mxGeometry x="244" y="394.18000000000006" width="20" height="20" as="geometry" />
        </mxCell>
        <mxCell id="uEJfcoyi3J7cDSthgGGN-469" value="" style="rounded=1;whiteSpace=wrap;html=1;fillColor=#46a45d;movable=1;resizable=1;rotatable=1;deletable=1;editable=1;locked=0;connectable=1;" vertex="1" parent="1">
          <mxGeometry x="264" y="394.18000000000006" width="20" height="20" as="geometry" />
        </mxCell>
        <mxCell id="uEJfcoyi3J7cDSthgGGN-470" value="" style="rounded=1;whiteSpace=wrap;html=1;fillColor=#46a45d;movable=1;resizable=1;rotatable=1;deletable=1;editable=1;locked=0;connectable=1;" vertex="1" parent="1">
          <mxGeometry x="244" y="414.18000000000006" width="20" height="20" as="geometry" />
        </mxCell>
        <mxCell id="uEJfcoyi3J7cDSthgGGN-471" value="" style="rounded=1;whiteSpace=wrap;html=1;fillColor=#46a45d;movable=1;resizable=1;rotatable=1;deletable=1;editable=1;locked=0;connectable=1;" vertex="1" parent="1">
          <mxGeometry x="264" y="414.18000000000006" width="20" height="20" as="geometry" />
        </mxCell>
        <mxCell id="uEJfcoyi3J7cDSthgGGN-472" value="" style="rounded=1;whiteSpace=wrap;html=1;fillColor=#2B2B2B;movable=1;resizable=1;rotatable=1;deletable=1;editable=1;locked=0;connectable=1;" vertex="1" parent="1">
          <mxGeometry x="244" y="434.18000000000006" width="20" height="20" as="geometry" />
        </mxCell>
        <mxCell id="uEJfcoyi3J7cDSthgGGN-473" value="" style="rounded=1;whiteSpace=wrap;html=1;fillColor=#46a45d;movable=1;resizable=1;rotatable=1;deletable=1;editable=1;locked=0;connectable=1;" vertex="1" parent="1">
          <mxGeometry x="264" y="434.18000000000006" width="20" height="20" as="geometry" />
        </mxCell>
        <mxCell id="uEJfcoyi3J7cDSthgGGN-474" value="" style="rounded=1;whiteSpace=wrap;html=1;fillColor=#66B2FF;movable=1;resizable=1;rotatable=1;deletable=1;editable=1;locked=0;connectable=1;" vertex="1" parent="1">
          <mxGeometry x="244" y="454.18000000000006" width="20" height="20" as="geometry" />
        </mxCell>
        <mxCell id="uEJfcoyi3J7cDSthgGGN-475" value="" style="rounded=1;whiteSpace=wrap;html=1;fillColor=#66B2FF;movable=1;resizable=1;rotatable=1;deletable=1;editable=1;locked=0;connectable=1;" vertex="1" parent="1">
          <mxGeometry x="264" y="454.18000000000006" width="20" height="20" as="geometry" />
        </mxCell>
        <mxCell id="uEJfcoyi3J7cDSthgGGN-476" value="" style="rounded=1;whiteSpace=wrap;html=1;fillColor=#46a45d;movable=1;resizable=1;rotatable=1;deletable=1;editable=1;locked=0;connectable=1;" vertex="1" parent="1">
          <mxGeometry x="244" y="474.18000000000006" width="20" height="20" as="geometry" />
        </mxCell>
        <mxCell id="uEJfcoyi3J7cDSthgGGN-477" value="" style="rounded=1;whiteSpace=wrap;html=1;fillColor=#2B2B2B;movable=1;resizable=1;rotatable=1;deletable=1;editable=1;locked=0;connectable=1;" vertex="1" parent="1">
          <mxGeometry x="264" y="474.18000000000006" width="20" height="20" as="geometry" />
        </mxCell>
        <mxCell id="uEJfcoyi3J7cDSthgGGN-478" value="" style="rounded=1;whiteSpace=wrap;html=1;fillColor=#46a45d;movable=1;resizable=1;rotatable=1;deletable=1;editable=1;locked=0;connectable=1;" vertex="1" parent="1">
          <mxGeometry x="244" y="494.18000000000006" width="20" height="20" as="geometry" />
        </mxCell>
        <mxCell id="uEJfcoyi3J7cDSthgGGN-479" value="" style="rounded=1;whiteSpace=wrap;html=1;fillColor=#46a45d;movable=1;resizable=1;rotatable=1;deletable=1;editable=1;locked=0;connectable=1;" vertex="1" parent="1">
          <mxGeometry x="264" y="494.18000000000006" width="20" height="20" as="geometry" />
        </mxCell>
        <mxCell id="uEJfcoyi3J7cDSthgGGN-480" value="" style="rounded=1;whiteSpace=wrap;html=1;fillColor=#46a45d;movable=1;resizable=1;rotatable=1;deletable=1;editable=1;locked=0;connectable=1;" vertex="1" parent="1">
          <mxGeometry x="244" y="514.1800000000001" width="20" height="20" as="geometry" />
        </mxCell>
        <mxCell id="uEJfcoyi3J7cDSthgGGN-481" value="" style="rounded=1;whiteSpace=wrap;html=1;fillColor=#46a45d;movable=1;resizable=1;rotatable=1;deletable=1;editable=1;locked=0;connectable=1;" vertex="1" parent="1">
          <mxGeometry x="264" y="514.1800000000001" width="20" height="20" as="geometry" />
        </mxCell>
        <mxCell id="uEJfcoyi3J7cDSthgGGN-482" value="" style="rounded=1;whiteSpace=wrap;html=1;fillColor=#2B2B2B;movable=1;resizable=1;rotatable=1;deletable=1;editable=1;locked=0;connectable=1;" vertex="1" parent="1">
          <mxGeometry x="244" y="534.1800000000001" width="20" height="20" as="geometry" />
        </mxCell>
        <mxCell id="uEJfcoyi3J7cDSthgGGN-483" value="" style="rounded=1;whiteSpace=wrap;html=1;fillColor=#46a45d;movable=1;resizable=1;rotatable=1;deletable=1;editable=1;locked=0;connectable=1;" vertex="1" parent="1">
          <mxGeometry x="264" y="534.1800000000001" width="20" height="20" as="geometry" />
        </mxCell>
        <mxCell id="uEJfcoyi3J7cDSthgGGN-484" value="" style="rounded=1;whiteSpace=wrap;html=1;fillColor=#46a45d;movable=1;resizable=1;rotatable=1;deletable=1;editable=1;locked=0;connectable=1;" vertex="1" parent="1">
          <mxGeometry x="244" y="554.1800000000001" width="20" height="20" as="geometry" />
        </mxCell>
        <mxCell id="uEJfcoyi3J7cDSthgGGN-485" value="" style="rounded=1;whiteSpace=wrap;html=1;fillColor=#CCCC00;movable=1;resizable=1;rotatable=1;deletable=1;editable=1;locked=0;connectable=1;" vertex="1" parent="1">
          <mxGeometry x="264" y="554.1800000000001" width="20" height="20" as="geometry" />
        </mxCell>
        <mxCell id="uEJfcoyi3J7cDSthgGGN-486" value="" style="rounded=1;whiteSpace=wrap;html=1;fillColor=#46a45d;movable=1;resizable=1;rotatable=1;deletable=1;editable=1;locked=0;connectable=1;" vertex="1" parent="1">
          <mxGeometry x="244" y="574.1800000000001" width="20" height="20" as="geometry" />
        </mxCell>
        <mxCell id="uEJfcoyi3J7cDSthgGGN-487" value="" style="rounded=1;whiteSpace=wrap;html=1;fillColor=#46a45d;movable=1;resizable=1;rotatable=1;deletable=1;editable=1;locked=0;connectable=1;" vertex="1" parent="1">
          <mxGeometry x="264" y="574.1800000000001" width="20" height="20" as="geometry" />
        </mxCell>
        <mxCell id="uEJfcoyi3J7cDSthgGGN-488" value="" style="rounded=1;whiteSpace=wrap;html=1;fillColor=#2B2B2B;movable=1;resizable=1;rotatable=1;deletable=1;editable=1;locked=0;connectable=1;" vertex="1" parent="1">
          <mxGeometry x="244" y="594.1800000000001" width="20" height="20" as="geometry" />
        </mxCell>
        <mxCell id="uEJfcoyi3J7cDSthgGGN-489" value="" style="rounded=1;whiteSpace=wrap;html=1;fillColor=#46a45d;movable=1;resizable=1;rotatable=1;deletable=1;editable=1;locked=0;connectable=1;" vertex="1" parent="1">
          <mxGeometry x="264" y="594.1800000000001" width="20" height="20" as="geometry" />
        </mxCell>
        <mxCell id="uEJfcoyi3J7cDSthgGGN-490" value="" style="rounded=1;whiteSpace=wrap;html=1;fillColor=#46a45d;movable=1;resizable=1;rotatable=1;deletable=1;editable=1;locked=0;connectable=1;" vertex="1" parent="1">
          <mxGeometry x="244" y="614.1800000000001" width="20" height="20" as="geometry" />
        </mxCell>
        <mxCell id="uEJfcoyi3J7cDSthgGGN-491" value="" style="rounded=1;whiteSpace=wrap;html=1;fillColor=#46a45d;movable=1;resizable=1;rotatable=1;deletable=1;editable=1;locked=0;connectable=1;" vertex="1" parent="1">
          <mxGeometry x="264" y="614.1800000000001" width="20" height="20" as="geometry" />
        </mxCell>
        <mxCell id="uEJfcoyi3J7cDSthgGGN-492" value="" style="rounded=1;whiteSpace=wrap;html=1;fillColor=#46a45d;movable=1;resizable=1;rotatable=1;deletable=1;editable=1;locked=0;connectable=1;" vertex="1" parent="1">
          <mxGeometry x="244" y="634.1800000000001" width="20" height="20" as="geometry" />
        </mxCell>
        <mxCell id="uEJfcoyi3J7cDSthgGGN-493" value="" style="rounded=1;whiteSpace=wrap;html=1;fillColor=#2B2B2B;movable=1;resizable=1;rotatable=1;deletable=1;editable=1;locked=0;connectable=1;" vertex="1" parent="1">
          <mxGeometry x="264" y="634.1800000000001" width="20" height="20" as="geometry" />
        </mxCell>
        <mxCell id="uEJfcoyi3J7cDSthgGGN-494" value="" style="rounded=1;whiteSpace=wrap;html=1;fillColor=#46a45d;movable=1;resizable=1;rotatable=1;deletable=1;editable=1;locked=0;connectable=1;" vertex="1" parent="1">
          <mxGeometry x="244" y="654.1800000000001" width="20" height="20" as="geometry" />
        </mxCell>
        <mxCell id="uEJfcoyi3J7cDSthgGGN-495" value="" style="rounded=1;whiteSpace=wrap;html=1;fillColor=#46a45d;movable=1;resizable=1;rotatable=1;deletable=1;editable=1;locked=0;connectable=1;" vertex="1" parent="1">
          <mxGeometry x="264" y="654.1800000000001" width="20" height="20" as="geometry" />
        </mxCell>
        <mxCell id="uEJfcoyi3J7cDSthgGGN-496" value="" style="rounded=1;whiteSpace=wrap;html=1;fillColor=#2B2B2B;movable=1;resizable=1;rotatable=1;deletable=1;editable=1;locked=0;connectable=1;" vertex="1" parent="1">
          <mxGeometry x="244" y="674.18" width="20" height="20" as="geometry" />
        </mxCell>
        <mxCell id="uEJfcoyi3J7cDSthgGGN-497" value="" style="rounded=1;whiteSpace=wrap;html=1;fillColor=#46a45d;movable=1;resizable=1;rotatable=1;deletable=1;editable=1;locked=0;connectable=1;" vertex="1" parent="1">
          <mxGeometry x="264" y="674.18" width="20" height="20" as="geometry" />
        </mxCell>
        <mxCell id="uEJfcoyi3J7cDSthgGGN-498" value="" style="rounded=1;whiteSpace=wrap;html=1;fillColor=#A41414;movable=1;resizable=1;rotatable=1;deletable=1;editable=1;locked=0;connectable=1;" vertex="1" parent="1">
          <mxGeometry x="244" y="694.18" width="20" height="20" as="geometry" />
        </mxCell>
        <mxCell id="uEJfcoyi3J7cDSthgGGN-499" value="" style="rounded=1;whiteSpace=wrap;html=1;fillColor=#46a45d;movable=1;resizable=1;rotatable=1;deletable=1;editable=1;locked=0;connectable=1;" vertex="1" parent="1">
          <mxGeometry x="264" y="694.18" width="20" height="20" as="geometry" />
        </mxCell>
        <mxCell id="uEJfcoyi3J7cDSthgGGN-500" value="" style="rounded=1;whiteSpace=wrap;html=1;fillColor=#A41414;movable=1;resizable=1;rotatable=1;deletable=1;editable=1;locked=0;connectable=1;" vertex="1" parent="1">
          <mxGeometry x="244" y="714.18" width="20" height="20" as="geometry" />
        </mxCell>
        <mxCell id="uEJfcoyi3J7cDSthgGGN-501" value="" style="rounded=1;whiteSpace=wrap;html=1;fillColor=#CCCC00;movable=1;resizable=1;rotatable=1;deletable=1;editable=1;locked=0;connectable=1;" vertex="1" parent="1">
          <mxGeometry x="264" y="714.18" width="20" height="20" as="geometry" />
        </mxCell>
        <mxCell id="uEJfcoyi3J7cDSthgGGN-506" value="" style="group;rotation=-30;movable=1;resizable=1;rotatable=1;deletable=1;editable=1;locked=0;connectable=1;" vertex="1" connectable="0" parent="1">
          <mxGeometry x="400" y="311.18000000000006" width="6" height="11" as="geometry" />
        </mxCell>
        <mxCell id="uEJfcoyi3J7cDSthgGGN-507" value="" style="rounded=0;whiteSpace=wrap;html=1;strokeColor=none;fillColor=#292926;rotation=-120;movable=1;resizable=1;rotatable=1;deletable=1;editable=1;locked=0;connectable=1;" vertex="1" parent="uEJfcoyi3J7cDSthgGGN-506">
          <mxGeometry x="-2" y="3" width="11" height="6" as="geometry" />
        </mxCell>
        <mxCell id="uEJfcoyi3J7cDSthgGGN-508" value="" style="rounded=0;whiteSpace=wrap;html=1;strokeColor=none;fillColor=#D1D1D1;rotation=-120;movable=1;resizable=1;rotatable=1;deletable=1;editable=1;locked=0;connectable=1;" vertex="1" parent="uEJfcoyi3J7cDSthgGGN-506">
          <mxGeometry y="-1" width="2" height="6" as="geometry" />
        </mxCell>
        <mxCell id="uEJfcoyi3J7cDSthgGGN-509" value="" style="rounded=0;whiteSpace=wrap;html=1;strokeColor=none;fillColor=#D1D1D1;rotation=-120;movable=1;resizable=1;rotatable=1;deletable=1;editable=1;locked=0;connectable=1;" vertex="1" parent="uEJfcoyi3J7cDSthgGGN-506">
          <mxGeometry x="4" y="6" width="2" height="6" as="geometry" />
        </mxCell>
        <mxCell id="uEJfcoyi3J7cDSthgGGN-512" value="" style="group;rotation=-45;movable=1;resizable=1;rotatable=1;deletable=1;editable=1;locked=0;connectable=1;" vertex="1" connectable="0" parent="1">
          <mxGeometry x="380" y="285.18000000000006" width="6" height="11" as="geometry" />
        </mxCell>
        <mxCell id="uEJfcoyi3J7cDSthgGGN-513" value="" style="rounded=0;whiteSpace=wrap;html=1;strokeColor=none;fillColor=#292926;rotation=-135;movable=1;resizable=1;rotatable=1;deletable=1;editable=1;locked=0;connectable=1;" vertex="1" parent="uEJfcoyi3J7cDSthgGGN-512">
          <mxGeometry x="-2" y="3" width="11" height="6" as="geometry" />
        </mxCell>
        <mxCell id="uEJfcoyi3J7cDSthgGGN-514" value="" style="rounded=0;whiteSpace=wrap;html=1;strokeColor=none;fillColor=#D1D1D1;rotation=-135;movable=1;resizable=1;rotatable=1;deletable=1;editable=1;locked=0;connectable=1;" vertex="1" parent="uEJfcoyi3J7cDSthgGGN-512">
          <mxGeometry x="-1" y="-1" width="2" height="6" as="geometry" />
        </mxCell>
        <mxCell id="uEJfcoyi3J7cDSthgGGN-515" value="" style="rounded=0;whiteSpace=wrap;html=1;strokeColor=none;fillColor=#D1D1D1;rotation=-135;movable=1;resizable=1;rotatable=1;deletable=1;editable=1;locked=0;connectable=1;" vertex="1" parent="uEJfcoyi3J7cDSthgGGN-512">
          <mxGeometry x="5" y="6" width="2" height="6" as="geometry" />
        </mxCell>
        <mxCell id="uEJfcoyi3J7cDSthgGGN-516" value="" style="group;rotation=45;movable=1;resizable=1;rotatable=1;deletable=1;editable=1;locked=0;connectable=1;" vertex="1" connectable="0" parent="1">
          <mxGeometry x="368" y="277.18000000000006" width="6" height="11" as="geometry" />
        </mxCell>
        <mxCell id="uEJfcoyi3J7cDSthgGGN-517" value="" style="rounded=0;whiteSpace=wrap;html=1;strokeColor=none;fillColor=#292926;rotation=-45;movable=1;resizable=1;rotatable=1;deletable=1;editable=1;locked=0;connectable=1;" vertex="1" parent="uEJfcoyi3J7cDSthgGGN-516">
          <mxGeometry x="-3" y="3" width="11" height="6" as="geometry" />
        </mxCell>
        <mxCell id="uEJfcoyi3J7cDSthgGGN-518" value="" style="rounded=0;whiteSpace=wrap;html=1;strokeColor=none;fillColor=#D1D1D1;rotation=-45;movable=1;resizable=1;rotatable=1;deletable=1;editable=1;locked=0;connectable=1;" vertex="1" parent="uEJfcoyi3J7cDSthgGGN-516">
          <mxGeometry x="6" width="2" height="6" as="geometry" />
        </mxCell>
        <mxCell id="uEJfcoyi3J7cDSthgGGN-519" value="" style="rounded=0;whiteSpace=wrap;html=1;strokeColor=none;fillColor=#D1D1D1;rotation=-45;movable=1;resizable=1;rotatable=1;deletable=1;editable=1;locked=0;connectable=1;" vertex="1" parent="uEJfcoyi3J7cDSthgGGN-516">
          <mxGeometry x="-1" y="6" width="2" height="6" as="geometry" />
        </mxCell>
        <mxCell id="uEJfcoyi3J7cDSthgGGN-527" value="" style="group;rotation=45;movable=1;resizable=1;rotatable=1;deletable=1;editable=1;locked=0;connectable=1;" vertex="1" connectable="0" parent="1">
          <mxGeometry x="388" y="301.18000000000006" width="6" height="11" as="geometry" />
        </mxCell>
        <mxCell id="uEJfcoyi3J7cDSthgGGN-528" value="" style="rounded=0;whiteSpace=wrap;html=1;strokeColor=none;fillColor=#292926;rotation=-45;movable=1;resizable=1;rotatable=1;deletable=1;editable=1;locked=0;connectable=1;" vertex="1" parent="uEJfcoyi3J7cDSthgGGN-527">
          <mxGeometry x="-2" y="3" width="11" height="6" as="geometry" />
        </mxCell>
        <mxCell id="uEJfcoyi3J7cDSthgGGN-529" value="" style="rounded=0;whiteSpace=wrap;html=1;strokeColor=none;fillColor=#D1D1D1;rotation=-45;movable=1;resizable=1;rotatable=1;deletable=1;editable=1;locked=0;connectable=1;" vertex="1" parent="uEJfcoyi3J7cDSthgGGN-527">
          <mxGeometry x="5" y="-1" width="2" height="6" as="geometry" />
        </mxCell>
        <mxCell id="uEJfcoyi3J7cDSthgGGN-530" value="" style="rounded=0;whiteSpace=wrap;html=1;strokeColor=none;fillColor=#D1D1D1;rotation=-45;movable=1;resizable=1;rotatable=1;deletable=1;editable=1;locked=0;connectable=1;" vertex="1" parent="uEJfcoyi3J7cDSthgGGN-527">
          <mxGeometry x="-1" y="6" width="2" height="6" as="geometry" />
        </mxCell>
        <mxCell id="uEJfcoyi3J7cDSthgGGN-535" value="&lt;b style=&quot;color: rgb(255, 255, 255); font-family: &amp;quot;Courier New&amp;quot;; font-size: 19px;&quot;&gt;2PA5&lt;/b&gt;" style="rounded=1;whiteSpace=wrap;html=1;fillColor=#46a45d;movable=1;resizable=1;rotatable=1;deletable=1;editable=1;locked=0;connectable=1;" vertex="1" parent="1">
          <mxGeometry x="160" y="240" width="50" height="30" as="geometry" />
        </mxCell>
        <mxCell id="uEJfcoyi3J7cDSthgGGN-536" value="&lt;b style=&quot;color: rgb(255, 255, 255); font-family: &amp;quot;Courier New&amp;quot;; font-size: 19px;&quot;&gt;GND&lt;/b&gt;" style="rounded=1;whiteSpace=wrap;html=1;fillColor=#2B2B2B;movable=1;resizable=1;rotatable=1;deletable=1;editable=1;locked=0;connectable=1;" vertex="1" parent="1">
          <mxGeometry x="550" y="240" width="50" height="30" as="geometry" />
        </mxCell>
        <mxCell id="uEJfcoyi3J7cDSthgGGN-537" value="&lt;b style=&quot;color: rgb(255, 255, 255); font-family: &amp;quot;Courier New&amp;quot;; font-size: 19px;&quot;&gt;2PB4&lt;/b&gt;" style="rounded=1;whiteSpace=wrap;html=1;fillColor=#46a45d;movable=1;resizable=1;rotatable=1;deletable=1;editable=1;locked=0;connectable=1;" vertex="1" parent="1">
          <mxGeometry x="160" y="270" width="50" height="30" as="geometry" />
        </mxCell>
        <mxCell id="uEJfcoyi3J7cDSthgGGN-538" value="&lt;b style=&quot;color: rgb(255, 255, 255); font-family: &amp;quot;Courier New&amp;quot;; font-size: 19px;&quot;&gt;2PB2&lt;/b&gt;" style="rounded=1;whiteSpace=wrap;html=1;fillColor=#46a45d;movable=1;resizable=1;rotatable=1;deletable=1;editable=1;locked=0;connectable=1;" vertex="1" parent="1">
          <mxGeometry x="550" y="270" width="50" height="30" as="geometry" />
        </mxCell>
        <mxCell id="uEJfcoyi3J7cDSthgGGN-539" value="&lt;b style=&quot;color: rgb(255, 255, 255); font-family: &amp;quot;Courier New&amp;quot;; font-size: 19px;&quot;&gt;2PA4&lt;/b&gt;" style="rounded=1;whiteSpace=wrap;html=1;fillColor=#46a45d;movable=1;resizable=1;rotatable=1;deletable=1;editable=1;locked=0;connectable=1;" vertex="1" parent="1">
          <mxGeometry x="160" y="300" width="50" height="30" as="geometry" />
        </mxCell>
        <mxCell id="uEJfcoyi3J7cDSthgGGN-540" value="&lt;b style=&quot;color: rgb(255, 255, 255); font-family: &amp;quot;Courier New&amp;quot;; font-size: 19px;&quot;&gt;2PB3&lt;/b&gt;" style="rounded=1;whiteSpace=wrap;html=1;fillColor=#46a45d;movable=1;resizable=1;rotatable=1;deletable=1;editable=1;locked=0;connectable=1;" vertex="1" parent="1">
          <mxGeometry x="550" y="300" width="50" height="30" as="geometry" />
        </mxCell>
        <mxCell id="uEJfcoyi3J7cDSthgGGN-541" value="&lt;b style=&quot;color: rgb(255, 255, 255); font-family: &amp;quot;Courier New&amp;quot;; font-size: 19px;&quot;&gt;GND&lt;/b&gt;" style="rounded=1;whiteSpace=wrap;html=1;fillColor=#2B2B2B;movable=1;resizable=1;rotatable=1;deletable=1;editable=1;locked=0;connectable=1;" vertex="1" parent="1">
          <mxGeometry x="160" y="330" width="50" height="30" as="geometry" />
        </mxCell>
        <mxCell id="uEJfcoyi3J7cDSthgGGN-542" value="&lt;b style=&quot;color: rgb(255, 255, 255); font-family: &amp;quot;Courier New&amp;quot;; font-size: 19px;&quot;&gt;2PA6&lt;/b&gt;" style="rounded=1;whiteSpace=wrap;html=1;fillColor=#46a45d;movable=1;resizable=1;rotatable=1;deletable=1;editable=1;locked=0;connectable=1;" vertex="1" parent="1">
          <mxGeometry x="550" y="330" width="50" height="30" as="geometry" />
        </mxCell>
        <mxCell id="uEJfcoyi3J7cDSthgGGN-543" value="&lt;b style=&quot;color: rgb(255, 255, 255); font-family: &amp;quot;Courier New&amp;quot;; font-size: 19px;&quot;&gt;2PB1&lt;/b&gt;" style="rounded=1;whiteSpace=wrap;html=1;fillColor=#46a45d;movable=1;resizable=1;rotatable=1;deletable=1;editable=1;locked=0;connectable=1;" vertex="1" parent="1">
          <mxGeometry x="160" y="360" width="50" height="30" as="geometry" />
        </mxCell>
        <mxCell id="uEJfcoyi3J7cDSthgGGN-544" value="&lt;b style=&quot;color: rgb(255, 255, 255); font-family: &amp;quot;Courier New&amp;quot;; font-size: 19px;&quot;&gt;2PB5&lt;/b&gt;" style="rounded=1;whiteSpace=wrap;html=1;fillColor=#46a45d;movable=1;resizable=1;rotatable=1;deletable=1;editable=1;locked=0;connectable=1;" vertex="1" parent="1">
          <mxGeometry x="550" y="360" width="50" height="30" as="geometry" />
        </mxCell>
        <mxCell id="uEJfcoyi3J7cDSthgGGN-545" value="&lt;b style=&quot;color: rgb(255, 255, 255); font-family: &amp;quot;Courier New&amp;quot;; font-size: 19px;&quot;&gt;GND&lt;/b&gt;" style="rounded=1;whiteSpace=wrap;html=1;fillColor=#2B2B2B;movable=1;resizable=1;rotatable=1;deletable=1;editable=1;locked=0;connectable=1;" vertex="1" parent="1">
          <mxGeometry x="160" y="390" width="50" height="30" as="geometry" />
        </mxCell>
        <mxCell id="uEJfcoyi3J7cDSthgGGN-546" value="&lt;b style=&quot;color: rgb(255, 255, 255); font-family: &amp;quot;Courier New&amp;quot;; font-size: 19px;&quot;&gt;2PB7&lt;/b&gt;" style="rounded=1;whiteSpace=wrap;html=1;fillColor=#46a45d;movable=1;resizable=1;rotatable=1;deletable=1;editable=1;locked=0;connectable=1;" vertex="1" parent="1">
          <mxGeometry x="550" y="390" width="50" height="30" as="geometry" />
        </mxCell>
        <mxCell id="uEJfcoyi3J7cDSthgGGN-547" value="&lt;b style=&quot;color: rgb(255, 255, 255); font-family: &amp;quot;Courier New&amp;quot;; font-size: 19px;&quot;&gt;0PB7&lt;/b&gt;" style="rounded=1;whiteSpace=wrap;html=1;fillColor=#66B2FF;movable=1;resizable=1;rotatable=1;deletable=1;editable=1;locked=0;connectable=1;" vertex="1" parent="1">
          <mxGeometry x="160" y="420" width="50" height="30" as="geometry" />
        </mxCell>
        <mxCell id="uEJfcoyi3J7cDSthgGGN-548" value="&lt;b style=&quot;color: rgb(255, 255, 255); font-family: &amp;quot;Courier New&amp;quot;; font-size: 19px;&quot;&gt;2PB6&lt;/b&gt;" style="rounded=1;whiteSpace=wrap;html=1;fillColor=#66B2FF;movable=1;resizable=1;rotatable=1;deletable=1;editable=1;locked=0;connectable=1;" vertex="1" parent="1">
          <mxGeometry x="550" y="420" width="50" height="30" as="geometry" />
        </mxCell>
        <mxCell id="uEJfcoyi3J7cDSthgGGN-549" value="&lt;b style=&quot;color: rgb(255, 255, 255); font-family: &amp;quot;Courier New&amp;quot;; font-size: 19px;&quot;&gt;2PA7&lt;/b&gt;" style="rounded=1;whiteSpace=wrap;html=1;fillColor=#46a45d;movable=1;resizable=1;rotatable=1;deletable=1;editable=1;locked=0;connectable=1;" vertex="1" parent="1">
          <mxGeometry x="160" y="450" width="50" height="30" as="geometry" />
        </mxCell>
        <mxCell id="uEJfcoyi3J7cDSthgGGN-550" value="&lt;b style=&quot;color: rgb(255, 255, 255); font-family: &amp;quot;Courier New&amp;quot;; font-size: 19px;&quot;&gt;GND&lt;/b&gt;" style="rounded=1;whiteSpace=wrap;html=1;fillColor=#2B2B2B;movable=1;resizable=1;rotatable=1;deletable=1;editable=1;locked=0;connectable=1;" vertex="1" parent="1">
          <mxGeometry x="550" y="450" width="50" height="30" as="geometry" />
        </mxCell>
        <mxCell id="uEJfcoyi3J7cDSthgGGN-551" value="&lt;font face=&quot;Courier New&quot; color=&quot;#ffffff&quot;&gt;&lt;span style=&quot;font-size: 19px;&quot;&gt;&lt;b&gt;2PA3&lt;/b&gt;&lt;/span&gt;&lt;/font&gt;" style="rounded=1;whiteSpace=wrap;html=1;fillColor=#46a45d;movable=1;resizable=1;rotatable=1;deletable=1;editable=1;locked=0;connectable=1;" vertex="1" parent="1">
          <mxGeometry x="160" y="480" width="50" height="30" as="geometry" />
        </mxCell>
        <mxCell id="uEJfcoyi3J7cDSthgGGN-552" value="&lt;b style=&quot;color: rgb(255, 255, 255); font-family: &amp;quot;Courier New&amp;quot;; font-size: 19px;&quot;&gt;2PA2&lt;/b&gt;" style="rounded=1;whiteSpace=wrap;html=1;fillColor=#46a45d;movable=1;resizable=1;rotatable=1;deletable=1;editable=1;locked=0;connectable=1;" vertex="1" parent="1">
          <mxGeometry x="550" y="480" width="50" height="30" as="geometry" />
        </mxCell>
        <mxCell id="uEJfcoyi3J7cDSthgGGN-553" value="&lt;b style=&quot;color: rgb(255, 255, 255); font-family: &amp;quot;Courier New&amp;quot;; font-size: 19px;&quot;&gt;0PC4&lt;/b&gt;" style="rounded=1;whiteSpace=wrap;html=1;fillColor=#46a45d;movable=1;resizable=1;rotatable=1;deletable=1;editable=1;locked=0;connectable=1;" vertex="1" parent="1">
          <mxGeometry x="160" y="510" width="50" height="30" as="geometry" />
        </mxCell>
        <mxCell id="uEJfcoyi3J7cDSthgGGN-554" value="&lt;b style=&quot;color: rgb(255, 255, 255); font-family: &amp;quot;Courier New&amp;quot;; font-size: 19px;&quot;&gt;2PA0&lt;/b&gt;" style="rounded=1;whiteSpace=wrap;html=1;fillColor=#46a45d;movable=1;resizable=1;rotatable=1;deletable=1;editable=1;locked=0;connectable=1;" vertex="1" parent="1">
          <mxGeometry x="550" y="510" width="50" height="30" as="geometry" />
        </mxCell>
        <mxCell id="uEJfcoyi3J7cDSthgGGN-555" value="&lt;b style=&quot;color: rgb(255, 255, 255); font-family: &amp;quot;Courier New&amp;quot;; font-size: 19px;&quot;&gt;GND&lt;/b&gt;" style="rounded=1;whiteSpace=wrap;html=1;fillColor=#2B2B2B;movable=1;resizable=1;rotatable=1;deletable=1;editable=1;locked=0;connectable=1;" vertex="1" parent="1">
          <mxGeometry x="160" y="540" width="50" height="30" as="geometry" />
        </mxCell>
        <mxCell id="uEJfcoyi3J7cDSthgGGN-556" value="&lt;b style=&quot;color: rgb(255, 255, 255); font-family: &amp;quot;Courier New&amp;quot;; font-size: 19px;&quot;&gt;2PA1&lt;/b&gt;" style="rounded=1;whiteSpace=wrap;html=1;fillColor=#46a45d;movable=1;resizable=1;rotatable=1;deletable=1;editable=1;locked=0;connectable=1;" vertex="1" parent="1">
          <mxGeometry x="550" y="540" width="50" height="30" as="geometry" />
        </mxCell>
        <mxCell id="uEJfcoyi3J7cDSthgGGN-557" value="&lt;b style=&quot;color: rgb(255, 255, 255); font-family: &amp;quot;Courier New&amp;quot;; font-size: 19px;&quot;&gt;0PB4&lt;/b&gt;" style="rounded=1;whiteSpace=wrap;html=1;fillColor=#46a45d;movable=1;resizable=1;rotatable=1;deletable=1;editable=1;locked=0;connectable=1;" vertex="1" parent="1">
          <mxGeometry x="160" y="570" width="50" height="30" as="geometry" />
        </mxCell>
        <mxCell id="uEJfcoyi3J7cDSthgGGN-558" value="&lt;b style=&quot;color: rgb(255, 255, 255); font-family: &amp;quot;Courier New&amp;quot;; font-size: 19px;&quot;&gt;3V3&lt;/b&gt;" style="rounded=1;whiteSpace=wrap;html=1;fillColor=#CCCC00;movable=1;resizable=1;rotatable=1;deletable=1;editable=1;locked=0;connectable=1;" vertex="1" parent="1">
          <mxGeometry x="550" y="570" width="50" height="30" as="geometry" />
        </mxCell>
        <mxCell id="uEJfcoyi3J7cDSthgGGN-559" value="&lt;b style=&quot;color: rgb(255, 255, 255); font-family: &amp;quot;Courier New&amp;quot;; font-size: 19px;&quot;&gt;0PB3&lt;/b&gt;" style="rounded=1;whiteSpace=wrap;html=1;fillColor=#46a45d;movable=1;resizable=1;rotatable=1;deletable=1;editable=1;locked=0;connectable=1;" vertex="1" parent="1">
          <mxGeometry x="160" y="600" width="50" height="30" as="geometry" />
        </mxCell>
        <mxCell id="uEJfcoyi3J7cDSthgGGN-560" value="&lt;b style=&quot;color: rgb(255, 255, 255); font-family: &amp;quot;Courier New&amp;quot;; font-size: 19px;&quot;&gt;0PA5&lt;/b&gt;" style="rounded=1;whiteSpace=wrap;html=1;fillColor=#46a45d;movable=1;resizable=1;rotatable=1;deletable=1;editable=1;locked=0;connectable=1;" vertex="1" parent="1">
          <mxGeometry x="550" y="600" width="50" height="30" as="geometry" />
        </mxCell>
        <mxCell id="uEJfcoyi3J7cDSthgGGN-561" value="&lt;b style=&quot;color: rgb(255, 255, 255); font-family: &amp;quot;Courier New&amp;quot;; font-size: 19px;&quot;&gt;GND&lt;/b&gt;" style="rounded=1;whiteSpace=wrap;html=1;fillColor=#2B2B2B;movable=1;resizable=1;rotatable=1;deletable=1;editable=1;locked=0;connectable=1;" vertex="1" parent="1">
          <mxGeometry x="160" y="630" width="50" height="30" as="geometry" />
        </mxCell>
        <mxCell id="uEJfcoyi3J7cDSthgGGN-562" value="&lt;b style=&quot;color: rgb(255, 255, 255); font-family: &amp;quot;Courier New&amp;quot;; font-size: 19px;&quot;&gt;2PB0&lt;/b&gt;" style="rounded=1;whiteSpace=wrap;html=1;fillColor=#46a45d;movable=1;resizable=1;rotatable=1;deletable=1;editable=1;locked=0;connectable=1;" vertex="1" parent="1">
          <mxGeometry x="550" y="630" width="50" height="30" as="geometry" />
        </mxCell>
        <mxCell id="uEJfcoyi3J7cDSthgGGN-563" value="&lt;font face=&quot;Courier New&quot; color=&quot;#ffffff&quot;&gt;&lt;span style=&quot;font-size: 19px;&quot;&gt;&lt;b&gt;0PB6&lt;/b&gt;&lt;/span&gt;&lt;/font&gt;" style="rounded=1;whiteSpace=wrap;html=1;fillColor=#46a45d;movable=1;resizable=1;rotatable=1;deletable=1;editable=1;locked=0;connectable=1;" vertex="1" parent="1">
          <mxGeometry x="160" y="660" width="50" height="30" as="geometry" />
        </mxCell>
        <mxCell id="uEJfcoyi3J7cDSthgGGN-564" value="&lt;b style=&quot;color: rgb(255, 255, 255); font-family: &amp;quot;Courier New&amp;quot;; font-size: 19px;&quot;&gt;0PA6&lt;/b&gt;" style="rounded=1;whiteSpace=wrap;html=1;fillColor=#46a45d;movable=1;resizable=1;rotatable=1;deletable=1;editable=1;locked=0;connectable=1;" vertex="1" parent="1">
          <mxGeometry x="550" y="660" width="50" height="30" as="geometry" />
        </mxCell>
        <mxCell id="uEJfcoyi3J7cDSthgGGN-565" value="&lt;b style=&quot;color: rgb(255, 255, 255); font-family: &amp;quot;Courier New&amp;quot;; font-size: 19px;&quot;&gt;1PC6&lt;/b&gt;" style="rounded=1;whiteSpace=wrap;html=1;fillColor=#46a45d;movable=1;resizable=1;rotatable=1;deletable=1;editable=1;locked=0;connectable=1;" vertex="1" parent="1">
          <mxGeometry x="160" y="690" width="50" height="30" as="geometry" />
        </mxCell>
        <mxCell id="uEJfcoyi3J7cDSthgGGN-566" value="&lt;b style=&quot;color: rgb(255, 255, 255); font-family: &amp;quot;Courier New&amp;quot;; font-size: 19px;&quot;&gt;GND&lt;/b&gt;" style="rounded=1;whiteSpace=wrap;html=1;fillColor=#2B2B2B;movable=1;resizable=1;rotatable=1;deletable=1;editable=1;locked=0;connectable=1;" vertex="1" parent="1">
          <mxGeometry x="550" y="690" width="50" height="30" as="geometry" />
        </mxCell>
        <mxCell id="uEJfcoyi3J7cDSthgGGN-567" value="&lt;b style=&quot;color: rgb(255, 255, 255); font-family: &amp;quot;Courier New&amp;quot;; font-size: 19px;&quot;&gt;1PC7&lt;/b&gt;" style="rounded=1;whiteSpace=wrap;html=1;fillColor=#46a45d;movable=1;resizable=1;rotatable=1;deletable=1;editable=1;locked=0;connectable=1;" vertex="1" parent="1">
          <mxGeometry x="160" y="720" width="50" height="30" as="geometry" />
        </mxCell>
        <mxCell id="uEJfcoyi3J7cDSthgGGN-568" value="&lt;b style=&quot;color: rgb(255, 255, 255); font-family: &amp;quot;Courier New&amp;quot;; font-size: 19px;&quot;&gt;0PA7&lt;/b&gt;" style="rounded=1;whiteSpace=wrap;html=1;fillColor=#46a45d;movable=1;resizable=1;rotatable=1;deletable=1;editable=1;locked=0;connectable=1;" vertex="1" parent="1">
          <mxGeometry x="550" y="720" width="50" height="30" as="geometry" />
        </mxCell>
        <mxCell id="uEJfcoyi3J7cDSthgGGN-569" value="&lt;font color=&quot;#ffffff&quot; face=&quot;Courier New&quot;&gt;&lt;span style=&quot;font-size: 19px;&quot;&gt;&lt;b style=&quot;&quot;&gt;GND&lt;/b&gt;&lt;/span&gt;&lt;/font&gt;" style="rounded=1;whiteSpace=wrap;html=1;fillColor=#2B2B2B;movable=1;resizable=1;rotatable=1;deletable=1;editable=1;locked=0;connectable=1;" vertex="1" parent="1">
          <mxGeometry x="160" y="750" width="50" height="30" as="geometry" />
        </mxCell>
        <mxCell id="uEJfcoyi3J7cDSthgGGN-570" value="&lt;b style=&quot;color: rgb(255, 255, 255); font-family: &amp;quot;Courier New&amp;quot;; font-size: 19px;&quot;&gt;1PD1&lt;/b&gt;" style="rounded=1;whiteSpace=wrap;html=1;fillColor=#46a45d;movable=1;resizable=1;rotatable=1;deletable=1;editable=1;locked=0;connectable=1;" vertex="1" parent="1">
          <mxGeometry x="550" y="750" width="50" height="30" as="geometry" />
        </mxCell>
        <mxCell id="uEJfcoyi3J7cDSthgGGN-571" value="&lt;b style=&quot;font-family: &amp;quot;Courier New&amp;quot;; font-size: 19px;&quot;&gt;&lt;font color=&quot;#ffffff&quot;&gt;5V&lt;/font&gt;&lt;/b&gt;" style="rounded=1;whiteSpace=wrap;html=1;fillColor=#A41414;movable=1;resizable=1;rotatable=1;deletable=1;editable=1;locked=0;connectable=1;" vertex="1" parent="1">
          <mxGeometry x="160" y="780" width="50" height="30" as="geometry" />
        </mxCell>
        <mxCell id="uEJfcoyi3J7cDSthgGGN-572" value="&lt;b style=&quot;color: rgb(255, 255, 255); font-family: &amp;quot;Courier New&amp;quot;; font-size: 19px;&quot;&gt;1PD0&lt;/b&gt;" style="rounded=1;whiteSpace=wrap;html=1;fillColor=#46a45d;movable=1;resizable=1;rotatable=1;deletable=1;editable=1;locked=0;connectable=1;" vertex="1" parent="1">
          <mxGeometry x="550" y="780" width="50" height="30" as="geometry" />
        </mxCell>
        <mxCell id="uEJfcoyi3J7cDSthgGGN-573" value="&lt;span style=&quot;font-size: 19px;&quot;&gt;&lt;b style=&quot;&quot;&gt;&lt;font color=&quot;#ffffff&quot;&gt;5V&lt;/font&gt;&lt;/b&gt;&lt;/span&gt;" style="rounded=1;whiteSpace=wrap;html=1;fillColor=#A41414;movable=1;resizable=1;rotatable=1;deletable=1;editable=1;locked=0;connectable=1;fontFamily=Courier New;" vertex="1" parent="1">
          <mxGeometry x="160" y="810" width="50" height="30" as="geometry" />
        </mxCell>
        <mxCell id="uEJfcoyi3J7cDSthgGGN-574" value="&lt;font face=&quot;Courier New&quot; color=&quot;#ffffff&quot;&gt;&lt;span style=&quot;font-size: 19px;&quot;&gt;&lt;b&gt;3V3&lt;/b&gt;&lt;/span&gt;&lt;/font&gt;" style="rounded=1;whiteSpace=wrap;html=1;fillColor=#CCCC00;movable=1;resizable=1;rotatable=1;deletable=1;editable=1;locked=0;connectable=1;" vertex="1" parent="1">
          <mxGeometry x="550" y="810" width="50" height="30" as="geometry" />
        </mxCell>
        <mxCell id="uEJfcoyi3J7cDSthgGGN-579" value="&lt;b style=&quot;font-family: &amp;quot;Courier New&amp;quot;; font-size: 19px;&quot;&gt;I2C1 SCL&lt;/b&gt;" style="rounded=1;whiteSpace=wrap;html=1;fillColor=#dae8fc;movable=1;resizable=1;rotatable=1;deletable=1;editable=1;locked=0;connectable=1;strokeColor=#6c8ebf;fontColor=#6C8EBF;" vertex="1" parent="1">
          <mxGeometry x="619" y="750" width="120" height="30" as="geometry" />
        </mxCell>
        <mxCell id="uEJfcoyi3J7cDSthgGGN-580" value="&lt;b style=&quot;font-family: &amp;quot;Courier New&amp;quot;; font-size: 19px;&quot;&gt;I2C0 SDA&lt;/b&gt;" style="rounded=1;whiteSpace=wrap;html=1;fillColor=#dae8fc;movable=1;resizable=1;rotatable=1;deletable=1;editable=1;locked=0;connectable=1;strokeColor=#6c8ebf;fontColor=#6C8EBF;" vertex="1" parent="1">
          <mxGeometry x="619" y="780" width="120" height="30" as="geometry" />
        </mxCell>
        <mxCell id="uEJfcoyi3J7cDSthgGGN-582" value="&lt;b style=&quot;font-family: &amp;quot;Courier New&amp;quot;; font-size: 19px;&quot;&gt;UART1 TX&lt;/b&gt;" style="rounded=1;whiteSpace=wrap;html=1;fillColor=#ffe6cc;movable=1;resizable=1;rotatable=1;deletable=1;editable=1;locked=0;connectable=1;strokeColor=#d79b00;fontColor=#D79B00;" vertex="1" parent="1">
          <mxGeometry x="739" y="750" width="120" height="30" as="geometry" />
        </mxCell>
        <mxCell id="uEJfcoyi3J7cDSthgGGN-583" value="&lt;b style=&quot;font-family: &amp;quot;Courier New&amp;quot;; font-size: 19px;&quot;&gt;UART1 RX&lt;/b&gt;" style="rounded=1;whiteSpace=wrap;html=1;fillColor=#ffe6cc;movable=1;resizable=1;rotatable=1;deletable=1;editable=1;locked=0;connectable=1;strokeColor=#d79b00;fontColor=#D79B00;" vertex="1" parent="1">
          <mxGeometry x="739" y="780" width="120" height="30" as="geometry" />
        </mxCell>
        <mxCell id="uEJfcoyi3J7cDSthgGGN-585" value="&lt;b style=&quot;font-family: &amp;quot;Courier New&amp;quot;; font-size: 19px;&quot;&gt;I2S0 SDO1&lt;/b&gt;" style="rounded=1;whiteSpace=wrap;html=1;fillColor=#e1d5e7;movable=1;resizable=1;rotatable=1;deletable=1;editable=1;locked=0;connectable=1;strokeColor=#9673a6;fontColor=#9673A6;" vertex="1" parent="1">
          <mxGeometry x="620" y="270" width="120" height="30" as="geometry" />
        </mxCell>
        <mxCell id="uEJfcoyi3J7cDSthgGGN-586" value="&lt;b style=&quot;font-family: &amp;quot;Courier New&amp;quot;; font-size: 19px;&quot;&gt;I2S0 SDO2&lt;/b&gt;" style="rounded=1;whiteSpace=wrap;html=1;fillColor=#e1d5e7;movable=1;resizable=1;rotatable=1;deletable=1;editable=1;locked=0;connectable=1;strokeColor=#9673a6;fontColor=#9673A6;" vertex="1" parent="1">
          <mxGeometry x="620" y="300" width="120" height="30" as="geometry" />
        </mxCell>
        <mxCell id="uEJfcoyi3J7cDSthgGGN-587" value="&lt;b style=&quot;font-family: &amp;quot;Courier New&amp;quot;; font-size: 19px;&quot;&gt;I2S0 TXCLK&lt;/b&gt;" style="rounded=1;whiteSpace=wrap;html=1;fillColor=#e1d5e7;movable=1;resizable=1;rotatable=1;deletable=1;editable=1;locked=0;connectable=1;strokeColor=#9673a6;fontColor=#9673A6;" vertex="1" parent="1">
          <mxGeometry x="620" y="630.1800000000001" width="120" height="30" as="geometry" />
        </mxCell>
        <mxCell id="uEJfcoyi3J7cDSthgGGN-589" value="&lt;b style=&quot;font-family: &amp;quot;Courier New&amp;quot;; font-size: 19px;&quot;&gt;I2S0 RXCLK&lt;/b&gt;" style="rounded=1;whiteSpace=wrap;html=1;fillColor=#e1d5e7;movable=1;resizable=1;rotatable=1;deletable=1;editable=1;locked=0;connectable=1;strokeColor=#9673a6;fontColor=#9673A6;" vertex="1" parent="1">
          <mxGeometry x="20" y="450.18000000000006" width="120" height="30" as="geometry" />
        </mxCell>
        <mxCell id="uEJfcoyi3J7cDSthgGGN-590" value="&lt;b style=&quot;font-family: &amp;quot;Courier New&amp;quot;; font-size: 19px;&quot;&gt;I2S0 SDO0&lt;/b&gt;" style="rounded=1;whiteSpace=wrap;html=1;fillColor=#e1d5e7;movable=1;resizable=1;rotatable=1;deletable=1;editable=1;locked=0;connectable=1;strokeColor=#9673a6;fontColor=#9673A6;" vertex="1" parent="1">
          <mxGeometry x="20" y="359.93000000000006" width="120" height="30" as="geometry" />
        </mxCell>
        <mxCell id="uEJfcoyi3J7cDSthgGGN-591" value="&lt;b style=&quot;font-family: &amp;quot;Courier New&amp;quot;; font-size: 19px;&quot;&gt;I2S0 SDO3&lt;/b&gt;" style="rounded=1;whiteSpace=wrap;html=1;fillColor=#e1d5e7;movable=1;resizable=1;rotatable=1;deletable=1;editable=1;locked=0;connectable=1;strokeColor=#9673a6;fontColor=#9673A6;" vertex="1" parent="1">
          <mxGeometry x="20" y="270.18000000000006" width="120" height="30" as="geometry" />
        </mxCell>
        <mxCell id="uEJfcoyi3J7cDSthgGGN-592" value="&lt;b style=&quot;font-family: &amp;quot;Courier New&amp;quot;; font-size: 19px;&quot;&gt;SPI0 MISO&lt;/b&gt;" style="rounded=1;whiteSpace=wrap;html=1;fillColor=#f5f5f5;movable=1;resizable=1;rotatable=1;deletable=1;editable=1;locked=0;connectable=1;strokeColor=#666666;fontColor=#666666;" vertex="1" parent="1">
          <mxGeometry x="620" y="510.18000000000006" width="120" height="30" as="geometry" />
        </mxCell>
        <mxCell id="uEJfcoyi3J7cDSthgGGN-593" value="&lt;b style=&quot;font-family: &amp;quot;Courier New&amp;quot;; font-size: 19px;&quot;&gt;SPI0 MOSI&lt;/b&gt;" style="rounded=1;whiteSpace=wrap;html=1;fillColor=#f5f5f5;movable=1;resizable=1;rotatable=1;deletable=1;editable=1;locked=0;connectable=1;strokeColor=#666666;fontColor=#666666;" vertex="1" parent="1">
          <mxGeometry x="620" y="540.1800000000001" width="120" height="30" as="geometry" />
        </mxCell>
        <mxCell id="uEJfcoyi3J7cDSthgGGN-594" value="&lt;b style=&quot;font-family: &amp;quot;Courier New&amp;quot;; font-size: 19px;&quot;&gt;SPI0 CLK&lt;/b&gt;" style="rounded=1;whiteSpace=wrap;html=1;fillColor=#f5f5f5;movable=1;resizable=1;rotatable=1;deletable=1;editable=1;locked=0;connectable=1;strokeColor=#666666;fontColor=#666666;" vertex="1" parent="1">
          <mxGeometry x="620" y="480.18000000000006" width="120" height="30" as="geometry" />
        </mxCell>
        <mxCell id="uEJfcoyi3J7cDSthgGGN-595" value="&lt;b style=&quot;font-family: &amp;quot;Courier New&amp;quot;; font-size: 19px;&quot;&gt;SPI0 CS&lt;/b&gt;" style="rounded=1;whiteSpace=wrap;html=1;fillColor=#f5f5f5;movable=1;resizable=1;rotatable=1;deletable=1;editable=1;locked=0;connectable=1;strokeColor=#666666;fontColor=#666666;" vertex="1" parent="1">
          <mxGeometry x="20" y="480.18000000000006" width="120" height="30" as="geometry" />
        </mxCell>
        <mxCell id="uEJfcoyi3J7cDSthgGGN-596" value="&lt;b style=&quot;font-family: &amp;quot;Courier New&amp;quot;; font-size: 19px;&quot;&gt;UART2 RX&lt;/b&gt;" style="rounded=1;whiteSpace=wrap;html=1;fillColor=#ffe6cc;movable=1;resizable=1;rotatable=1;deletable=1;editable=1;locked=0;connectable=1;strokeColor=#d79b00;fontColor=#D79B00;" vertex="1" parent="1">
          <mxGeometry x="20" y="690.6800000000001" width="120" height="30" as="geometry" />
        </mxCell>
        <mxCell id="uEJfcoyi3J7cDSthgGGN-597" value="&lt;b style=&quot;font-family: &amp;quot;Courier New&amp;quot;; font-size: 19px;&quot;&gt;UART2 TX&lt;/b&gt;" style="rounded=1;whiteSpace=wrap;html=1;fillColor=#ffe6cc;movable=1;resizable=1;rotatable=1;deletable=1;editable=1;locked=0;connectable=1;strokeColor=#d79b00;fontColor=#D79B00;" vertex="1" parent="1">
          <mxGeometry x="20" y="720.6800000000001" width="120" height="30" as="geometry" />
        </mxCell>
      </root>
    </mxGraphModel>
  </diagram>
</mxfile>
